<svg width="96" height="96" viewBox="0 0 96 96" fill="none" xmlns="http://www.w3.org/2000/svg">
<circle cx="48" cy="48" r="46" fill="#1C274C" stroke="white" stroke-width="4"/>
<path d="M29.3335 43.3332C29.3335 34.5336 29.3335 30.1338 32.0672 27.4002C34.8008 24.6665 39.2006 24.6665 48.0002 24.6665C56.7997 24.6665 61.1995 24.6665 63.9332 27.4002C66.6668 30.1338 66.6668 34.5336 66.6668 43.3332V52.6665C66.6668 61.4661 66.6668 65.8658 63.9332 68.5995C61.1995 71.3332 56.7997 71.3332 48.0002 71.3332C39.2006 71.3332 34.8008 71.3332 32.0672 68.5995C29.3335 65.8658 29.3335 61.4661 29.3335 52.6665V43.3332Z" stroke="white" stroke-width="1.5"/>
<path opacity="0.5" d="M55 64.3335H41" stroke="white" stroke-width="1.5" stroke-linecap="round"/>
<path opacity="0.5" d="M59.0792 25.5479L58.883 25.8422C57.1188 28.4884 56.2367 29.8116 54.9484 30.6122C54.6922 30.7714 54.426 30.9138 54.1514 31.0387C52.7706 31.6666 51.1804 31.6666 48.0001 31.6666C44.8197 31.6666 43.2295 31.6666 41.8487 31.0387C41.5741 30.9138 41.3079 30.7714 41.0518 30.6122C39.7634 29.8116 38.8813 28.4885 37.1172 25.8422L36.9209 25.5479" stroke="white" stroke-width="1.5" stroke-linecap="round"/>
</svg>
