<svg width="32" height="32" viewBox="0 0 32 32" fill="none" xmlns="http://www.w3.org/2000/svg">
<path d="M15.9999 1.3335C13.0991 1.3335 10.2635 2.19368 7.85156 3.80527C5.43964 5.41687 3.55978 7.70749 2.44969 10.3875C1.33961 13.0675 1.04916 16.0164 1.61507 18.8615C2.18099 21.7065 3.57786 24.3199 5.62903 26.3711C7.6802 28.4222 10.2935 29.8191 13.1386 30.385C15.9837 30.9509 18.9326 30.6605 21.6126 29.5504C24.2926 28.4403 26.5832 26.5604 28.1948 24.1485C29.8064 21.7366 30.6666 18.901 30.6666 16.0002C30.662 12.1117 29.1153 8.38387 26.3658 5.63433C23.6162 2.88479 19.8884 1.33808 15.9999 1.3335ZM15.9999 28.0002C13.6265 28.0002 11.3065 27.2964 9.33308 25.9778C7.35969 24.6592 5.82162 22.7851 4.91337 20.5924C4.00512 18.3997 3.76748 15.9869 4.2305 13.6591C4.69352 11.3313 5.83641 9.19311 7.51464 7.51488C9.19287 5.83665 11.3311 4.69376 13.6588 4.23074C15.9866 3.76772 18.3994 4.00536 20.5921 4.91361C22.7848 5.82186 24.659 7.35993 25.9776 9.33332C27.2961 11.3067 27.9999 13.6268 27.9999 16.0002C27.9964 19.1817 26.731 22.2319 24.4813 24.4815C22.2316 26.7312 19.1814 27.9966 15.9999 28.0002ZM17.3333 6.66683V9.3335C17.3333 9.68712 17.1928 10.0263 16.9427 10.2763C16.6927 10.5264 16.3535 10.6668 15.9999 10.6668C15.6463 10.6668 15.3072 10.5264 15.0571 10.2763C14.8071 10.0263 14.6666 9.68712 14.6666 9.3335V6.66683C14.6666 6.31321 14.8071 5.97407 15.0571 5.72402C15.3072 5.47397 15.6463 5.3335 15.9999 5.3335C16.3535 5.3335 16.6927 5.47397 16.9427 5.72402C17.1928 5.97407 17.3333 6.31321 17.3333 6.66683ZM17.3333 22.6668V25.3335C17.3333 25.6871 17.1928 26.0263 16.9427 26.2763C16.6927 26.5264 16.3535 26.6668 15.9999 26.6668C15.6463 26.6668 15.3072 26.5264 15.0571 26.2763C14.8071 26.0263 14.6666 25.6871 14.6666 25.3335V22.6668C14.6666 22.3132 14.8071 21.9741 15.0571 21.724C15.3072 21.474 15.6463 21.3335 15.9999 21.3335C16.3535 21.3335 16.6927 21.474 16.9427 21.724C17.1928 21.9741 17.3333 22.3132 17.3333 22.6668ZM19.7719 12.2295C19.522 11.9795 19.3815 11.6404 19.3815 11.2868C19.3815 10.9333 19.522 10.5942 19.7719 10.3442L21.6573 8.4575C21.9073 8.20731 22.2464 8.06668 22.6001 8.06656C22.9538 8.06643 23.2931 8.20682 23.5433 8.45683C23.7934 8.70684 23.9341 9.046 23.9342 9.39969C23.9343 9.75338 23.7939 10.0926 23.5439 10.3428L21.6573 12.2295C21.4072 12.4795 21.0681 12.6199 20.7146 12.6199C20.361 12.6199 20.022 12.4795 19.7719 12.2295ZM12.2279 19.7708C12.4779 20.0209 12.6183 20.3599 12.6183 20.7135C12.6183 21.067 12.4779 21.4061 12.2279 21.6562L10.3439 23.5428C10.2201 23.6667 10.0732 23.765 9.91138 23.8321C9.7496 23.8991 9.57619 23.9337 9.40106 23.9338C9.22593 23.9338 9.0525 23.8994 8.89068 23.8324C8.72886 23.7655 8.58181 23.6673 8.45793 23.5435C8.33404 23.4197 8.23576 23.2727 8.16868 23.1109C8.10161 22.9492 8.06705 22.7758 8.06699 22.6006C8.06693 22.4255 8.10136 22.2521 8.16832 22.0903C8.23529 21.9284 8.33347 21.7814 8.45726 21.6575L10.3426 19.7708C10.5926 19.5209 10.9317 19.3804 11.2853 19.3804C11.6388 19.3804 11.9779 19.5209 12.2279 19.7708ZM22.6666 14.6668H25.3333C25.6869 14.6668 26.026 14.8073 26.2761 15.0574C26.5261 15.3074 26.6666 15.6465 26.6666 16.0002C26.6666 16.3538 26.5261 16.6929 26.2761 16.943C26.026 17.193 25.6869 17.3335 25.3333 17.3335H22.6666C22.313 17.3335 21.9738 17.193 21.7238 16.943C21.4737 16.6929 21.3333 16.3538 21.3333 16.0002C21.3333 15.6465 21.4737 15.3074 21.7238 15.0574C21.9738 14.8073 22.313 14.6668 22.6666 14.6668ZM9.33326 17.3335H6.66659C6.31297 17.3335 5.97383 17.193 5.72378 16.943C5.47373 16.6929 5.33326 16.3538 5.33326 16.0002C5.33326 15.6465 5.47373 15.3074 5.72378 15.0574C5.97383 14.8073 6.31297 14.6668 6.66659 14.6668H9.33326C9.68688 14.6668 10.026 14.8073 10.2761 15.0574C10.5261 15.3074 10.6666 15.6465 10.6666 16.0002C10.6666 16.3538 10.5261 16.6929 10.2761 16.943C10.026 17.193 9.68688 17.3335 9.33326 17.3335ZM23.5426 21.6575C23.7926 21.9077 23.933 22.2469 23.9329 22.6006C23.9327 22.9543 23.7921 23.2935 23.5419 23.5435C23.2917 23.7935 22.9525 23.9339 22.5988 23.9338C22.2451 23.9336 21.9059 23.793 21.6559 23.5428L19.7706 21.6562C19.5206 21.406 19.3802 21.0667 19.3803 20.713C19.3804 20.3593 19.5211 20.0202 19.7713 19.7702C20.0214 19.5202 20.3607 19.3798 20.7144 19.3799C21.0681 19.38 21.4072 19.5206 21.6573 19.7708L23.5426 21.6575ZM12.2293 10.3442C12.3531 10.468 12.4512 10.6151 12.5182 10.7769C12.5852 10.9387 12.6196 11.1122 12.6195 11.2873C12.6195 11.4624 12.5849 11.6358 12.5178 11.7976C12.4508 11.9594 12.3525 12.1064 12.2286 12.2302C12.1047 12.354 11.9577 12.4521 11.7958 12.5191C11.634 12.5861 11.4606 12.6205 11.2855 12.6204C11.1103 12.6204 10.9369 12.5858 10.7751 12.5187C10.6134 12.4517 10.4664 12.3534 10.3426 12.2295L8.45726 10.3428C8.33347 10.2189 8.23529 10.0719 8.16832 9.91007C8.10136 9.74825 8.06693 9.57482 8.06699 9.39969C8.06705 9.22456 8.10161 9.05116 8.16868 8.88938C8.23576 8.7276 8.33404 8.58062 8.45793 8.45683C8.58181 8.33304 8.72886 8.23486 8.89068 8.16789C9.0525 8.10093 9.22593 8.0665 9.40106 8.06656C9.57619 8.06662 9.7496 8.10118 9.91138 8.16825C10.0732 8.23533 10.2201 8.33362 10.3439 8.4575L12.2293 10.3442Z" fill="url(#paint0_linear_93_3986)"/>
<defs>
<linearGradient id="paint0_linear_93_3986" x1="15.9999" y1="1.3335" x2="15.9999" y2="30.6668" gradientUnits="userSpaceOnUse">
<stop stop-color="#3252F5"/>
<stop offset="1" stop-color="#081537"/>
</linearGradient>
</defs>
</svg>
