<svg width="222" height="224" viewBox="0 0 222 224" fill="none" xmlns="http://www.w3.org/2000/svg">
<g opacity="0.41">
<path opacity="0.0344828" d="M312.759 -58.0556C311.164 -59.9573 308.726 -61.1789 305.412 -61.6761C302.089 -62.1744 297.949 -61.9327 293.067 -60.9569C283.305 -59.0058 270.787 -54.1631 256.349 -46.818C227.487 -32.1354 191.153 -7.55732 154.208 23.4439C117.262 54.4451 86.7478 85.9591 67.2764 111.833C57.5358 124.776 50.593 136.263 46.9763 145.538C45.1677 150.176 44.2106 154.211 44.1245 157.57C44.0385 160.92 44.8183 163.533 46.414 165.435C48.0097 167.336 50.4474 168.558 53.7618 169.055C57.0844 169.554 61.2249 169.312 66.1065 168.336C75.8685 166.385 88.3865 161.542 102.825 154.197C131.686 139.515 168.02 114.937 204.966 83.9353C241.912 52.9341 272.426 21.4201 291.897 -4.45338C301.638 -17.3967 308.58 -28.8835 312.197 -38.1585C314.006 -42.7965 314.963 -46.832 315.049 -50.1908C315.135 -53.5411 314.355 -56.1539 312.759 -58.0556Z" stroke="url(#paint0_linear_179_795)" stroke-width="2"/>
<path opacity="0.0689655" d="M302.514 -70.6327C300.758 -72.3881 298.224 -73.3926 294.879 -73.599C291.525 -73.8059 287.421 -73.2041 282.643 -71.8067C273.089 -69.0121 261.04 -63.0968 247.297 -54.5214C219.825 -37.3792 185.772 -9.72789 151.668 24.3754C117.565 58.4786 89.9139 92.5322 72.7717 120.004C64.1962 133.747 58.281 145.796 55.4864 155.35C54.089 160.128 53.4872 164.232 53.6941 167.585C53.9005 170.931 54.905 173.465 56.6604 175.221C58.4158 176.976 60.9507 177.981 64.2958 178.187C67.6492 178.394 71.7529 177.792 76.5308 176.395C86.0857 173.6 98.1339 167.685 111.877 159.11C139.349 141.967 173.403 114.316 207.506 80.2128C241.609 46.1095 269.26 12.0559 286.403 -15.4162C294.978 -29.1592 300.893 -41.2074 303.688 -50.7623C305.085 -55.5402 305.687 -59.6439 305.48 -62.9973C305.274 -66.3424 304.269 -68.8773 302.514 -70.6327Z" stroke="url(#paint1_linear_179_795)" stroke-width="2"/>
<path opacity="0.103448" d="M291.332 -82.2751C289.431 -83.8708 286.818 -84.6506 283.468 -84.5646C280.109 -84.4784 276.073 -83.5214 271.435 -81.7128C262.16 -78.0961 250.673 -71.1533 237.73 -61.4127C211.857 -41.9413 180.343 -11.4273 149.341 25.5185C118.34 62.4643 93.7621 98.7982 79.0795 127.66C71.7345 142.098 66.8918 154.616 64.9406 164.378C63.9649 169.259 63.7231 173.4 64.2215 176.723C64.7186 180.037 65.9402 182.475 67.842 184.07C69.7437 185.666 72.3565 186.446 75.7068 186.36C79.0655 186.274 83.1011 185.317 87.739 183.508C97.014 179.891 108.501 172.949 121.444 163.208C147.318 143.737 178.832 113.223 209.833 76.2768C240.834 39.3311 265.412 2.99712 280.095 -25.8645C287.44 -40.3026 292.282 -52.8205 294.234 -62.5826C295.209 -67.4642 295.451 -71.6046 294.953 -74.9273C294.456 -78.2416 293.234 -80.6793 291.332 -82.2751Z" stroke="url(#paint2_linear_179_795)" stroke-width="2"/>
<path opacity="0.137931" d="M279.301 -92.9034C277.268 -94.3273 274.597 -94.8764 271.267 -94.4987C267.928 -94.1201 263.991 -92.815 259.529 -90.6091C250.604 -86.1978 239.766 -78.2802 227.721 -67.4486C203.643 -45.7963 174.909 -12.6518 147.245 26.8553C119.582 66.3624 98.2643 104.7 86.153 134.732C80.0943 149.755 76.3611 162.647 75.2681 172.542C74.7216 177.49 74.8416 181.636 75.6276 184.903C76.4117 188.161 77.8412 190.483 79.8747 191.907C81.9083 193.331 84.5791 193.88 87.9092 193.502C91.2476 193.124 95.1844 191.819 99.6471 189.613C108.572 185.201 119.41 177.284 131.455 166.452C155.533 144.8 184.267 111.655 211.931 72.1484C239.594 32.6412 260.912 -5.69657 273.023 -35.728C279.082 -50.7513 282.815 -63.6437 283.908 -73.5387C284.454 -78.4867 284.334 -82.6325 283.548 -85.8991C282.764 -89.1575 281.335 -91.4795 279.301 -92.9034Z" stroke="url(#paint3_linear_179_795)" stroke-width="2"/>
<path opacity="0.172414" d="M266.51 -102.448C264.36 -103.689 261.652 -104.003 258.367 -103.337C255.074 -102.669 251.266 -101.025 247.013 -98.4389C238.507 -93.2665 228.4 -84.4345 217.345 -72.5943C195.246 -48.9259 169.509 -13.4031 145.394 28.3647C121.28 70.1325 103.384 110.182 93.9365 141.155C89.2102 156.649 86.6149 169.818 86.3885 179.771C86.2753 184.747 86.7561 188.867 87.8239 192.053C88.889 195.23 90.5154 197.419 92.6653 198.66C94.8152 199.901 97.5237 200.216 100.808 199.549C104.101 198.881 107.909 197.238 112.162 194.651C120.668 189.479 130.775 180.647 141.83 168.807C163.93 145.138 189.666 109.615 213.781 67.8477C237.896 26.0799 255.791 -13.97 265.239 -44.9427C269.965 -60.4369 272.56 -73.6056 272.787 -83.5582C272.9 -88.5351 272.419 -92.6546 271.351 -95.8403C270.286 -99.0179 268.66 -101.206 266.51 -102.448Z" stroke="url(#paint4_linear_179_795)" stroke-width="2"/>
<path opacity="0.206897" d="M253.057 -110.846C250.807 -111.896 248.082 -111.973 244.868 -111.022C241.646 -110.07 237.995 -108.101 233.984 -105.154C225.961 -99.2596 216.662 -89.5803 206.681 -76.8216C186.729 -51.3172 164.186 -13.6865 143.804 30.0241C123.421 73.7346 109.084 115.192 102.372 146.87C99.0139 162.717 97.5761 176.062 98.2181 185.997C98.539 190.964 99.3771 195.026 100.718 198.107C102.056 201.179 103.867 203.218 106.117 204.267C108.367 205.316 111.093 205.393 114.307 204.443C117.529 203.49 121.179 201.522 125.191 198.574C133.214 192.68 142.512 183.001 152.494 170.242C172.446 144.738 194.988 107.107 215.371 63.3965C235.754 19.6859 250.09 -21.7712 256.803 -53.4495C260.161 -69.2967 261.598 -82.6415 260.956 -92.5759C260.635 -97.5437 259.797 -101.606 258.456 -104.686C257.118 -107.759 255.307 -109.797 253.057 -110.846Z" stroke="url(#paint5_linear_179_795)" stroke-width="2"/>
<path opacity="0.241379" d="M239.046 -118.047C236.714 -118.896 233.992 -118.735 230.873 -117.508C227.746 -116.279 224.281 -113.999 220.541 -110.713C213.063 -104.142 204.643 -93.6895 195.812 -80.1095C178.159 -52.9632 158.981 -13.511 142.486 31.8098C125.991 77.1305 115.322 119.679 111.396 151.822C109.432 167.902 109.163 181.321 110.668 191.162C111.421 196.083 112.61 200.056 114.214 203.008C115.815 205.952 117.797 207.825 120.13 208.674C122.462 209.523 125.184 209.362 128.303 208.136C131.43 206.906 134.895 204.626 138.634 201.341C146.113 194.77 154.533 184.317 163.364 170.737C181.017 143.591 200.194 104.138 216.69 58.8177C233.185 13.497 243.854 -29.0519 247.78 -61.1947C249.744 -77.2742 250.013 -90.6936 248.508 -100.534C247.755 -105.455 246.566 -109.429 244.962 -112.38C243.361 -115.325 241.379 -117.198 239.046 -118.047Z" stroke="url(#paint6_linear_179_795)" stroke-width="2"/>
<path opacity="0.275862" d="M224.582 -124.003C222.184 -124.645 219.487 -124.248 216.487 -122.754C213.479 -121.256 210.226 -118.683 206.787 -115.084C199.91 -107.886 192.433 -96.7396 184.819 -82.4415C169.599 -53.8599 153.933 -12.8864 141.45 33.6995C128.968 80.2854 122.048 123.602 120.938 155.965C120.383 172.154 121.285 185.546 123.642 195.218C124.821 200.055 126.351 203.909 128.207 206.71C130.058 209.504 132.196 211.197 134.594 211.84C136.992 212.482 139.689 212.085 142.689 210.591C145.697 209.093 148.95 206.52 152.389 202.921C159.266 195.723 166.743 184.577 174.357 170.278C189.577 141.697 205.243 100.723 217.726 54.1374C230.208 7.55149 237.128 -35.7654 238.238 -68.128C238.793 -84.3175 237.892 -97.7093 235.534 -107.381C234.356 -112.218 232.825 -116.073 230.969 -118.873C229.118 -121.667 226.98 -123.36 224.582 -124.003Z" stroke="url(#paint7_linear_179_795)" stroke-width="2"/>
<path opacity="0.310345" d="M209.776 -128.681C207.331 -129.112 204.679 -128.481 201.82 -126.731C198.954 -124.977 195.938 -122.131 192.826 -118.246C186.602 -110.476 180.125 -98.7198 173.786 -83.8125C161.115 -54.0131 149.08 -11.8302 140.705 35.6664C132.33 83.163 129.212 126.918 130.927 159.254C131.785 175.431 133.85 188.693 137.042 198.123C138.637 202.838 140.498 206.545 142.591 209.173C144.679 211.795 146.956 213.295 149.4 213.726C151.845 214.157 154.498 213.526 157.356 211.777C160.222 210.023 163.238 207.176 166.351 203.291C172.575 195.521 179.051 183.765 185.39 168.858C198.062 139.058 210.096 96.8753 218.471 49.3787C226.846 1.88212 229.965 -41.873 228.249 -74.2092C227.391 -90.3855 225.326 -103.648 222.135 -113.078C220.539 -117.793 218.678 -121.5 216.585 -124.128C214.498 -126.75 212.221 -128.25 209.776 -128.681Z" stroke="url(#paint8_linear_179_795)" stroke-width="2"/>
<path opacity="0.344828" d="M194.739 -132.056C192.266 -132.273 189.678 -131.413 186.983 -129.421C184.281 -127.424 181.525 -124.325 178.763 -120.183C173.24 -111.901 167.812 -99.6248 162.797 -84.2218C152.771 -53.4314 144.458 -10.3601 140.255 37.6857C136.051 85.7314 136.758 129.592 141.285 161.656C143.55 177.695 146.763 190.727 150.764 199.843C152.765 204.401 154.942 207.932 157.256 210.368C159.564 212.797 161.963 214.094 164.436 214.31C166.909 214.526 169.497 213.666 172.192 211.674C174.894 209.677 177.65 206.579 180.412 202.437C185.935 194.154 191.363 181.879 196.378 166.475C206.404 135.685 214.717 92.6138 218.92 44.568C223.124 -3.47777 222.417 -47.3382 217.89 -79.4019C215.625 -95.4418 212.412 -108.474 208.411 -117.589C206.41 -122.148 204.233 -125.678 201.919 -128.114C199.611 -130.544 197.212 -131.84 194.739 -132.056Z" stroke="url(#paint9_linear_179_795)" stroke-width="2"/>
<path opacity="0.37931" d="M179.587 -134.115C177.105 -134.115 174.602 -133.032 172.091 -130.813C169.573 -128.588 167.097 -125.261 164.707 -120.894C159.926 -112.162 155.59 -99.4597 151.936 -83.6782C144.631 -52.1311 140.104 -8.49924 140.104 39.7301C140.104 87.9593 144.631 131.591 151.936 163.138C155.59 178.92 159.926 191.622 164.707 200.354C167.097 204.721 169.573 208.048 172.091 210.273C174.602 212.493 177.105 213.575 179.587 213.575C182.07 213.575 184.573 212.493 187.084 210.273C189.601 208.048 192.078 204.721 194.468 200.354C199.248 191.622 203.585 178.92 207.239 163.138C214.543 131.591 219.07 87.9593 219.07 39.7301C219.07 -8.49924 214.543 -52.1311 207.239 -83.6782C203.585 -99.4597 199.248 -112.162 194.468 -120.894C192.078 -125.261 189.601 -128.588 187.084 -130.813C184.573 -133.032 182.07 -134.115 179.587 -134.115Z" stroke="url(#paint10_linear_179_795)" stroke-width="2"/>
<path opacity="0.413793" d="M164.436 -134.849C161.963 -134.633 159.564 -133.337 157.256 -130.907C154.942 -128.471 152.765 -124.941 150.764 -120.382C146.763 -111.267 143.55 -98.2348 141.286 -82.1948C136.759 -50.1312 136.051 -6.27073 140.255 41.775C144.458 89.8208 152.771 132.892 162.797 163.683C167.813 179.086 173.24 191.361 178.763 199.644C181.525 203.786 184.282 206.884 186.983 208.881C189.679 210.873 192.266 211.733 194.739 211.517C197.212 211.301 199.611 210.004 201.919 207.575C204.233 205.139 206.41 201.608 208.411 197.05C212.412 187.934 215.625 174.902 217.89 158.863C222.417 126.799 223.124 82.9385 218.92 34.8927C214.717 -13.1531 206.404 -56.2244 196.378 -87.0148C191.363 -102.418 185.935 -114.694 180.412 -122.976C177.65 -127.118 174.894 -130.217 172.192 -132.214C169.497 -134.206 166.909 -135.066 164.436 -134.849Z" stroke="url(#paint11_linear_179_795)" stroke-width="2"/>
<path opacity="0.448276" d="M149.399 -134.266C146.954 -133.835 144.678 -132.335 142.59 -129.713C140.497 -127.084 138.636 -123.378 137.04 -118.662C133.849 -109.233 131.784 -95.9705 130.926 -79.7942C129.211 -47.458 132.329 -3.70282 140.704 43.7938C149.079 91.2903 161.114 133.473 173.785 163.273C180.124 178.18 186.601 189.936 192.825 197.706C195.937 201.591 198.953 204.438 201.819 206.192C204.677 207.941 207.33 208.572 209.775 208.141C212.22 207.71 214.496 206.21 216.584 203.588C218.677 200.96 220.538 197.253 222.134 192.538C225.325 183.108 227.39 169.846 228.248 153.669C229.963 121.333 226.845 77.578 218.47 30.0815C210.095 -17.4151 198.06 -59.598 185.389 -89.3975C179.05 -104.305 172.573 -116.061 166.349 -123.83C163.237 -127.716 160.221 -130.562 157.355 -132.316C154.497 -134.066 151.844 -134.697 149.399 -134.266Z" stroke="url(#paint12_linear_179_795)" stroke-width="2"/>
<path opacity="0.482759" d="M134.593 -132.379C132.195 -131.736 130.058 -130.043 128.207 -127.249C126.351 -124.449 124.82 -120.594 123.641 -115.757C121.284 -106.085 120.383 -92.6935 120.938 -76.504C122.047 -44.1414 128.967 -0.824511 141.45 45.7614C153.933 92.3473 169.598 133.321 184.819 161.902C192.433 176.201 199.909 187.347 206.787 194.545C210.226 198.144 213.479 200.717 216.486 202.215C219.486 203.709 222.184 204.106 224.582 203.464C226.98 202.821 229.117 201.128 230.969 198.334C232.824 195.533 234.355 191.679 235.534 186.842C237.891 177.17 238.792 163.778 238.237 147.589C237.128 115.226 230.208 71.9094 217.725 25.3235C205.243 -21.2624 189.577 -62.2359 174.357 -90.8175C166.743 -105.116 159.266 -116.262 152.389 -123.46C148.949 -127.059 145.697 -129.632 142.689 -131.13C139.689 -132.624 136.991 -133.021 134.593 -132.379Z" stroke="url(#paint13_linear_179_795)" stroke-width="2"/>
<path opacity="0.517241" d="M120.129 -129.214C117.797 -128.365 115.815 -126.492 114.214 -123.548C112.609 -120.596 111.42 -116.623 110.668 -111.702C109.162 -101.861 109.432 -88.4416 111.396 -72.3621C115.322 -40.2193 125.99 2.32963 142.486 47.6503C158.981 92.971 178.158 132.423 195.812 159.57C204.643 173.15 213.063 183.602 220.541 190.173C224.281 193.459 227.746 195.739 230.872 196.968C233.991 198.195 236.713 198.356 239.046 197.507C241.379 196.658 243.361 194.785 244.961 191.841C246.566 188.889 247.755 184.915 248.508 179.994C250.013 170.154 249.744 156.734 247.78 140.655C243.854 108.512 233.185 65.9631 216.69 20.6424C200.194 -24.6783 181.017 -64.1305 163.364 -91.2769C154.532 -104.857 146.113 -115.31 138.634 -121.881C134.894 -125.166 131.43 -127.446 128.303 -128.676C125.184 -129.902 122.462 -130.063 120.129 -129.214Z" stroke="url(#paint14_linear_179_795)" stroke-width="2"/>
<path opacity="0.551724" d="M106.117 -124.806C103.867 -123.757 102.057 -121.718 100.719 -118.646C99.3772 -115.565 98.5391 -111.503 98.2181 -106.535C97.5762 -96.601 99.014 -83.2562 102.372 -67.4091C109.084 -35.7308 123.421 5.72641 143.804 49.437C164.186 93.1476 186.729 130.778 206.681 156.283C216.662 169.041 225.961 178.721 233.984 184.615C237.995 187.562 241.646 189.531 244.868 190.483C248.082 191.434 250.807 191.357 253.057 190.308C255.307 189.258 257.118 187.22 258.456 184.147C259.797 181.067 260.636 177.005 260.957 172.037C261.598 162.103 260.161 148.758 256.803 132.911C250.09 101.232 235.754 59.7751 215.371 16.0645C194.988 -27.6461 172.446 -65.2768 152.494 -90.7812C142.512 -103.54 133.214 -113.219 125.191 -119.113C121.179 -122.06 117.529 -124.029 114.307 -124.982C111.093 -125.932 108.367 -125.855 106.117 -124.806Z" stroke="url(#paint15_linear_179_795)" stroke-width="2"/>
<path opacity="0.586207" d="M92.6654 -119.2C90.5155 -117.958 88.8891 -115.77 87.824 -112.592C86.7562 -109.406 86.2753 -105.287 86.3885 -100.31C86.6149 -90.3575 89.2103 -77.1888 93.9366 -61.6946C103.384 -30.7219 121.28 9.32801 145.394 51.0958C169.509 92.8636 195.246 128.386 217.345 152.055C228.4 163.895 238.507 172.727 247.013 177.899C251.266 180.486 255.074 182.129 258.367 182.797C261.652 183.464 264.36 183.149 266.51 181.908C268.66 180.667 270.286 178.478 271.351 175.301C272.419 172.115 272.9 167.996 272.787 163.019C272.56 153.066 269.965 139.897 265.239 124.403C255.791 93.4305 237.896 53.3806 213.781 11.6128C189.666 -30.155 163.93 -65.6778 141.831 -89.3462C130.775 -101.186 120.669 -110.018 112.163 -115.191C107.909 -117.777 104.101 -119.421 100.808 -120.089C97.5238 -120.755 94.8153 -120.441 92.6654 -119.2Z" stroke="url(#paint16_linear_179_795)" stroke-width="2"/>
<path opacity="0.62069" d="M79.8744 -112.447C77.8409 -111.023 76.4114 -108.701 75.6273 -105.442C74.8413 -102.176 74.7213 -98.03 75.2678 -93.0819C76.3608 -83.1869 80.094 -70.2945 86.1527 -55.2712C98.264 -25.2398 119.582 13.098 147.245 52.6051C174.908 92.1123 203.643 125.257 227.721 146.909C239.766 157.741 250.604 165.658 259.528 170.07C263.991 172.275 267.928 173.581 271.266 173.959C274.596 174.337 277.267 173.788 279.301 172.364C281.334 170.94 282.764 168.618 283.548 165.36C284.334 162.093 284.454 157.947 283.907 152.999C282.815 143.104 279.081 130.212 273.023 115.188C260.911 85.157 239.593 46.8192 211.93 7.31211C184.267 -32.195 155.532 -65.3395 131.454 -86.9918C119.409 -97.8234 108.571 -105.741 99.6468 -110.152C95.1841 -112.358 91.2473 -113.663 87.9089 -114.042C84.5788 -114.42 81.908 -113.87 79.8744 -112.447Z" stroke="url(#paint17_linear_179_795)" stroke-width="2"/>
<path opacity="0.655172" d="M67.8424 -104.611C65.9407 -103.015 64.719 -100.577 64.2219 -97.2628C63.7235 -93.9401 63.9653 -89.7996 64.941 -84.9181C66.8922 -75.156 71.7349 -62.638 79.0799 -48.1999C93.7626 -19.3383 118.341 16.9956 149.342 53.9414C180.343 90.8872 211.857 121.401 237.731 140.873C250.674 150.613 262.161 157.556 271.436 161.173C276.074 162.981 280.109 163.938 283.468 164.024C286.818 164.11 289.431 163.331 291.333 161.735C293.234 160.139 294.456 157.702 294.953 154.387C295.452 151.064 295.21 146.924 294.234 142.042C292.283 132.28 287.44 119.762 280.095 105.324C265.413 76.4627 240.834 40.1288 209.833 3.18302C178.832 -33.7628 147.318 -64.2768 121.445 -83.7481C108.501 -93.4887 97.0144 -100.432 87.7395 -104.048C83.1015 -105.857 79.0659 -106.814 75.7072 -106.9C72.3569 -106.986 69.7441 -106.206 67.8424 -104.611Z" stroke="url(#paint18_linear_179_795)" stroke-width="2"/>
<path opacity="0.689655" d="M56.6613 -95.76C54.9059 -94.0046 53.9013 -91.4697 53.695 -88.1246C53.4881 -84.7712 54.0898 -80.6675 55.4873 -75.8896C58.2819 -66.3347 64.1971 -54.2865 72.7726 -40.5435C89.9148 -13.0714 117.566 20.9822 151.669 55.0855C185.773 89.1887 219.826 116.84 247.298 133.982C261.041 142.558 273.089 148.473 282.644 151.268C287.422 152.665 291.526 153.267 294.879 153.06C298.224 152.853 300.759 151.849 302.515 150.093C304.27 148.338 305.275 145.803 305.481 142.458C305.688 139.105 305.086 135.001 303.689 130.223C300.894 120.668 294.979 108.62 286.403 94.877C269.261 67.4049 241.61 33.3513 207.507 -0.751935C173.403 -34.8552 139.35 -62.5065 111.878 -79.6487C98.1348 -88.2241 86.0865 -94.1394 76.5317 -96.934C71.7537 -98.3314 67.6501 -98.9332 64.2966 -98.7263C60.9516 -98.5199 58.4167 -97.5154 56.6613 -95.76Z" stroke="url(#paint19_linear_179_795)" stroke-width="2"/>
<path opacity="0.724138" d="M46.4154 -85.9744C44.8196 -84.0727 44.0398 -81.4599 44.1258 -78.1096C44.212 -74.7509 45.1691 -70.7153 46.9776 -66.0773C50.5944 -56.8024 57.5372 -45.3155 67.2778 -32.3722C86.7491 -6.49871 117.263 25.0153 154.209 56.0165C191.155 87.0177 227.489 111.596 256.35 126.278C270.788 133.623 283.306 138.466 293.068 140.417C297.95 141.393 302.09 141.635 305.413 141.136C308.727 140.639 311.165 139.418 312.761 137.516C314.357 135.614 315.136 133.001 315.05 129.651C314.964 126.292 314.007 122.257 312.199 117.619C308.582 108.344 301.639 96.8571 291.898 83.9137C272.427 58.0402 241.913 26.5262 204.967 -4.47496C168.021 -35.4762 131.688 -60.0542 102.826 -74.7369C88.3879 -82.0819 75.8699 -86.9246 66.1078 -88.8758C61.2263 -89.8515 57.0858 -90.0933 53.7631 -89.5949C50.4488 -89.0978 48.0111 -87.8761 46.4154 -85.9744Z" stroke="url(#paint20_linear_179_795)" stroke-width="2"/>
<path opacity="0.758621" d="M37.1826 -75.3387C35.7587 -73.3052 35.2096 -70.6344 35.5872 -67.3043C35.9658 -63.9658 37.271 -60.029 39.4769 -55.5664C43.8882 -46.6419 51.8057 -35.8039 62.6373 -23.7588C84.2896 0.319237 117.434 29.0539 156.941 56.717C196.448 84.3802 234.786 105.698 264.818 117.809C279.841 123.868 292.733 127.601 302.628 128.694C307.576 129.241 311.722 129.121 314.989 128.335C318.247 127.551 320.569 126.121 321.993 124.088C323.417 122.054 323.966 119.383 323.588 116.053C323.21 112.715 321.905 108.778 319.699 104.315C315.287 95.3908 307.37 84.5528 296.538 72.5077C274.886 48.4297 241.741 19.6951 202.234 -7.96811C162.727 -35.6313 124.389 -56.9491 94.3579 -69.0605C79.3346 -75.1192 66.4422 -78.8524 56.5472 -79.9454C51.5992 -80.4919 47.4534 -80.3719 44.1868 -79.5858C40.9284 -78.8017 38.6065 -77.3723 37.1826 -75.3387Z" stroke="url(#paint21_linear_179_795)" stroke-width="2"/>
<path opacity="0.793103" d="M29.0337 -63.9436C27.7925 -61.7936 27.4783 -59.0851 28.1447 -55.8006C28.8128 -52.5079 30.4561 -48.6998 33.0426 -44.4464C38.2149 -35.9404 47.0469 -25.8336 58.8871 -14.7784C82.5556 7.32086 118.078 33.0574 159.846 57.172C201.614 81.2867 241.664 99.1821 272.637 108.63C288.131 113.356 301.299 115.952 311.252 116.178C316.229 116.291 320.348 115.81 323.534 114.743C326.712 113.677 328.9 112.051 330.142 109.901C331.383 107.751 331.697 105.043 331.031 101.758C330.362 98.4654 328.719 94.6574 326.133 90.4039C320.96 81.8979 312.128 71.7912 300.288 60.7359C276.62 38.6367 241.097 12.9001 199.329 -11.2145C157.561 -35.3291 117.511 -53.2245 86.5387 -62.6723C71.0445 -67.3986 57.8758 -69.994 47.9232 -70.2204C42.9464 -70.3336 38.8268 -69.8527 35.6412 -68.785C32.4635 -67.7199 30.275 -66.0935 29.0337 -63.9436Z" stroke="url(#paint22_linear_179_795)" stroke-width="2"/>
<path opacity="0.827586" d="M22.0305 -51.8873C20.9813 -49.6374 20.9044 -46.9117 21.8545 -43.6978C22.8071 -40.4759 24.776 -36.8255 27.7234 -32.8137C33.6174 -24.7908 43.2966 -15.4923 56.0553 -5.51109C81.5597 14.4412 119.19 36.9838 162.901 57.3664C206.612 77.749 248.069 92.0857 279.747 98.7981C295.594 102.156 308.939 103.594 318.873 102.952C323.841 102.631 327.903 101.793 330.984 100.451C334.056 99.1135 336.095 97.3025 337.144 95.0526C338.193 92.8027 338.27 90.0771 337.32 86.8632C336.367 83.6412 334.398 79.9908 331.451 75.979C325.557 67.9562 315.878 58.6576 303.119 48.6764C277.615 28.7241 239.984 6.1815 196.273 -14.2011C152.563 -34.5837 111.106 -48.9203 79.4274 -55.6328C63.5803 -58.9907 50.2355 -60.4284 40.301 -59.7865C35.3333 -59.4656 31.2713 -58.6275 28.1908 -57.2861C25.1181 -55.9481 23.0796 -54.1372 22.0305 -51.8873Z" stroke="url(#paint23_linear_179_795)" stroke-width="2"/>
<path opacity="0.862069" d="M16.2266 -39.2719C15.3776 -36.9391 15.5384 -34.2172 16.7651 -31.0983C17.9948 -27.9716 20.2744 -24.5067 23.5602 -20.767C30.131 -13.2884 40.5839 -4.86889 54.1639 3.96235C81.3103 21.6159 120.762 40.793 166.083 57.2884C211.404 73.7838 253.953 84.4527 286.096 88.3786C302.175 90.3425 315.594 90.6118 325.435 89.1065C330.356 88.3537 334.329 87.1648 337.281 85.5601C340.226 83.9594 342.099 81.9776 342.948 79.6449C343.797 77.3121 343.636 74.5901 342.409 71.4713C341.18 68.3446 338.9 64.8797 335.614 61.14C329.043 53.6614 318.59 45.2419 305.01 36.4106C277.864 18.7571 238.412 -0.420001 193.091 -16.9154C147.77 -33.4108 105.222 -44.0797 73.0787 -48.0056C56.9992 -49.9696 43.5799 -50.2388 33.7392 -48.7335C28.8183 -47.9808 24.8448 -46.7918 21.893 -45.1871C18.9486 -43.5864 17.0757 -41.6047 16.2266 -39.2719Z" stroke="url(#paint24_linear_179_795)" stroke-width="2"/>
<path opacity="0.896552" d="M11.6664 -26.2034C11.0238 -23.8055 11.4213 -21.108 12.9151 -18.1079C14.4127 -15.1003 16.9856 -11.8473 20.5848 -8.40818C27.7825 -1.53071 38.9293 5.94576 53.2274 13.5598C81.8091 28.7802 122.783 44.4459 169.368 56.9285C215.954 69.4112 259.271 76.3311 291.634 77.4407C307.823 77.9957 321.215 77.0943 330.887 74.7371C335.724 73.5584 339.578 72.0276 342.379 70.1718C345.173 68.3205 346.866 66.1831 347.508 63.7852C348.151 61.3873 347.753 58.6897 346.26 55.6896C344.762 52.682 342.189 49.429 338.59 45.9899C331.392 39.1124 320.245 31.636 305.947 24.0219C277.366 8.8015 236.392 -6.86412 189.806 -19.3468C143.22 -31.8294 99.9036 -38.7494 67.5409 -39.8589C51.3514 -40.414 37.9597 -39.5126 28.2876 -37.1554C23.4511 -35.9766 19.5964 -34.4459 16.7956 -32.59C14.0019 -30.7388 12.3089 -28.6013 11.6664 -26.2034Z" stroke="url(#paint25_linear_179_795)" stroke-width="2"/>
<path opacity="0.931035" d="M8.38393 -12.7931C7.95284 -10.3483 8.58393 -7.69568 10.3335 -4.83719C12.0875 -1.97154 14.9342 1.04482 18.8194 4.15714C26.5891 10.3811 38.3452 16.8576 53.2524 23.1966C83.0518 35.868 125.235 47.9029 172.731 56.2779C220.228 64.6528 263.983 67.7711 296.319 66.0558C312.496 65.1977 325.758 63.1326 335.188 59.9414C339.903 58.3456 343.61 56.4847 346.238 54.3918C348.86 52.3041 350.36 50.0273 350.791 47.5825C351.222 45.1377 350.591 42.4851 348.841 39.6266C347.087 36.7609 344.241 33.7446 340.356 30.6322C332.586 24.4083 320.83 17.9318 305.923 11.5928C276.123 -1.07861 233.94 -13.1135 186.444 -21.4885C138.947 -29.8634 95.1919 -32.9817 62.8557 -31.2664C46.6794 -30.4084 33.4172 -28.3432 23.9874 -25.152C19.272 -23.5562 15.5654 -21.6954 12.937 -19.6024C10.3153 -17.5147 8.81501 -15.2379 8.38393 -12.7931Z" stroke="url(#paint26_linear_179_795)" stroke-width="2"/>
<path opacity="0.965517" d="M6.40416 0.847361C6.18779 3.32041 7.04767 5.90797 9.03974 8.60309C11.0368 11.305 14.1355 14.0617 18.2773 16.8236C26.5598 22.3467 38.8356 27.774 54.2386 32.7895C85.029 42.8156 128.1 51.1282 176.146 55.3317C224.192 59.5351 268.052 58.828 300.116 54.301C316.156 52.0364 329.188 48.8232 338.303 44.8223C342.862 42.8216 346.392 40.6448 348.828 38.3307C351.258 36.0225 352.554 33.6235 352.77 31.1505C352.987 28.6774 352.127 26.0899 350.135 23.3948C348.138 20.6929 345.039 17.9361 340.897 15.1742C332.615 9.65111 320.339 4.22387 304.936 -0.791691C274.146 -10.8177 231.074 -19.1304 183.028 -23.3338C134.983 -27.5373 91.1223 -26.8302 59.0586 -22.3032C43.0187 -20.0385 29.9869 -16.8254 20.8711 -12.8244C16.3127 -10.8237 12.7824 -8.64691 10.3465 -6.33288C7.91666 -4.02462 6.62052 -1.62569 6.40416 0.847361Z" stroke="url(#paint27_linear_179_795)" stroke-width="2"/>
<path d="M5.74332 14.6026C5.74332 17.0851 6.82544 19.5879 9.04483 22.0991C11.2698 24.6167 14.597 27.0929 18.9637 29.4833C27.696 34.2635 40.3982 38.6002 56.1797 42.2542C87.7268 49.5585 131.359 54.0856 179.588 54.0856C227.817 54.0856 271.449 49.5585 302.996 42.2542C318.778 38.6002 331.48 34.2635 340.212 29.4833C344.579 27.0929 347.906 24.6167 350.131 22.0991C352.35 19.5879 353.433 17.0851 353.433 14.6026C353.433 12.1201 352.35 9.61736 350.131 7.10611C347.906 4.58858 344.579 2.11236 340.212 -0.278013C331.48 -5.05825 318.778 -9.39494 302.996 -13.049C271.449 -20.3533 227.817 -24.8804 179.588 -24.8804C131.359 -24.8804 87.7268 -20.3533 56.1797 -13.049C40.3982 -9.39494 27.696 -5.05825 18.9637 -0.278013C14.597 2.11236 11.2698 4.58858 9.04483 7.10611C6.82544 9.61736 5.74332 12.1201 5.74332 14.6026Z" stroke="url(#paint28_linear_179_795)" stroke-width="2"/>
</g>
<defs>
<linearGradient id="paint0_linear_179_795" x1="48.5304" y1="110.812" x2="268.272" y2="-73.5728" gradientUnits="userSpaceOnUse">
<stop stop-color="#00A452"/>
<stop offset="0.37" stop-color="#00A452"/>
<stop offset="0.69" stop-color="#00A452"/>
<stop offset="1" stop-color="#F8E7BF"/>
</linearGradient>
<linearGradient id="paint1_linear_179_795" x1="54.0081" y1="120.622" x2="256.843" y2="-82.2135" gradientUnits="userSpaceOnUse">
<stop stop-color="#00A452"/>
<stop offset="0.37" stop-color="#00A452"/>
<stop offset="0.69" stop-color="#00A452"/>
<stop offset="1" stop-color="#F8E7BF"/>
</linearGradient>
<linearGradient id="paint2_linear_179_795" x1="60.4411" y1="129.91" x2="244.826" y2="-89.8314" gradientUnits="userSpaceOnUse">
<stop stop-color="#00A452"/>
<stop offset="0.37" stop-color="#00A452"/>
<stop offset="0.69" stop-color="#00A452"/>
<stop offset="1" stop-color="#F8E7BF"/>
</linearGradient>
<linearGradient id="paint3_linear_179_795" x1="67.7817" y1="138.598" x2="232.313" y2="-96.3777" gradientUnits="userSpaceOnUse">
<stop stop-color="#00A452"/>
<stop offset="0.37" stop-color="#00A452"/>
<stop offset="0.69" stop-color="#00A452"/>
<stop offset="1" stop-color="#F8E7BF"/>
</linearGradient>
<linearGradient id="paint4_linear_179_795" x1="75.972" y1="146.608" x2="219.398" y2="-101.814" gradientUnits="userSpaceOnUse">
<stop stop-color="#00A452"/>
<stop offset="0.37" stop-color="#00A452"/>
<stop offset="0.69" stop-color="#00A452"/>
<stop offset="1" stop-color="#F8E7BF"/>
</linearGradient>
<linearGradient id="paint5_linear_179_795" x1="84.9509" y1="153.868" x2="206.18" y2="-106.109" gradientUnits="userSpaceOnUse">
<stop stop-color="#00A452"/>
<stop offset="0.37" stop-color="#00A452"/>
<stop offset="0.69" stop-color="#00A452"/>
<stop offset="1" stop-color="#F8E7BF"/>
</linearGradient>
<linearGradient id="paint6_linear_179_795" x1="94.6511" y1="160.312" x2="192.76" y2="-109.241" gradientUnits="userSpaceOnUse">
<stop stop-color="#00A452"/>
<stop offset="0.37" stop-color="#00A452"/>
<stop offset="0.69" stop-color="#00A452"/>
<stop offset="1" stop-color="#F8E7BF"/>
</linearGradient>
<linearGradient id="paint7_linear_179_795" x1="104.997" y1="165.881" x2="179.24" y2="-111.197" gradientUnits="userSpaceOnUse">
<stop stop-color="#00A452"/>
<stop offset="0.37" stop-color="#00A452"/>
<stop offset="0.69" stop-color="#00A452"/>
<stop offset="1" stop-color="#F8E7BF"/>
</linearGradient>
<linearGradient id="paint8_linear_179_795" x1="115.911" y1="170.522" x2="165.722" y2="-111.972" gradientUnits="userSpaceOnUse">
<stop stop-color="#00A452"/>
<stop offset="0.37" stop-color="#00A452"/>
<stop offset="0.69" stop-color="#00A452"/>
<stop offset="1" stop-color="#F8E7BF"/>
</linearGradient>
<linearGradient id="paint9_linear_179_795" x1="127.308" y1="174.189" x2="152.309" y2="-111.571" gradientUnits="userSpaceOnUse">
<stop stop-color="#00A452"/>
<stop offset="0.37" stop-color="#00A452"/>
<stop offset="0.69" stop-color="#00A452"/>
<stop offset="1" stop-color="#F8E7BF"/>
</linearGradient>
<linearGradient id="paint10_linear_179_795" x1="139.104" y1="176.843" x2="139.104" y2="-110.009" gradientUnits="userSpaceOnUse">
<stop stop-color="#00A452"/>
<stop offset="0.37" stop-color="#00A452"/>
<stop offset="0.69" stop-color="#00A452"/>
<stop offset="1" stop-color="#F8E7BF"/>
</linearGradient>
<linearGradient id="paint11_linear_179_795" x1="151.209" y1="178.453" x2="126.208" y2="-107.308" gradientUnits="userSpaceOnUse">
<stop stop-color="#00A452"/>
<stop offset="0.37" stop-color="#00A452"/>
<stop offset="0.69" stop-color="#00A452"/>
<stop offset="1" stop-color="#F8E7BF"/>
</linearGradient>
<linearGradient id="paint12_linear_179_795" x1="163.528" y1="178.997" x2="113.717" y2="-103.497" gradientUnits="userSpaceOnUse">
<stop stop-color="#00A452"/>
<stop offset="0.37" stop-color="#00A452"/>
<stop offset="0.69" stop-color="#00A452"/>
<stop offset="1" stop-color="#F8E7BF"/>
</linearGradient>
<linearGradient id="paint13_linear_179_795" x1="175.971" y1="178.461" x2="101.729" y2="-98.6171" gradientUnits="userSpaceOnUse">
<stop stop-color="#00A452"/>
<stop offset="0.37" stop-color="#00A452"/>
<stop offset="0.69" stop-color="#00A452"/>
<stop offset="1" stop-color="#F8E7BF"/>
</linearGradient>
<linearGradient id="paint14_linear_179_795" x1="188.441" y1="176.836" x2="90.3323" y2="-92.7168" gradientUnits="userSpaceOnUse">
<stop stop-color="#00A452"/>
<stop offset="0.37" stop-color="#00A452"/>
<stop offset="0.69" stop-color="#00A452"/>
<stop offset="1" stop-color="#F8E7BF"/>
</linearGradient>
<linearGradient id="paint15_linear_179_795" x1="200.844" y1="174.126" x2="79.6147" y2="-85.8505" gradientUnits="userSpaceOnUse">
<stop stop-color="#00A452"/>
<stop offset="0.37" stop-color="#00A452"/>
<stop offset="0.69" stop-color="#00A452"/>
<stop offset="1" stop-color="#F8E7BF"/>
</linearGradient>
<linearGradient id="paint16_linear_179_795" x1="213.085" y1="170.339" x2="69.6587" y2="-78.0824" gradientUnits="userSpaceOnUse">
<stop stop-color="#00A452"/>
<stop offset="0.37" stop-color="#00A452"/>
<stop offset="0.69" stop-color="#00A452"/>
<stop offset="1" stop-color="#F8E7BF"/>
</linearGradient>
<linearGradient id="paint17_linear_179_795" x1="225.071" y1="165.495" x2="60.5389" y2="-69.4807" gradientUnits="userSpaceOnUse">
<stop stop-color="#00A452"/>
<stop offset="0.37" stop-color="#00A452"/>
<stop offset="0.69" stop-color="#00A452"/>
<stop offset="1" stop-color="#F8E7BF"/>
</linearGradient>
<linearGradient id="paint18_linear_179_795" x1="236.71" y1="159.619" x2="52.3251" y2="-60.123" gradientUnits="userSpaceOnUse">
<stop stop-color="#00A452"/>
<stop offset="0.37" stop-color="#00A452"/>
<stop offset="0.69" stop-color="#00A452"/>
<stop offset="1" stop-color="#F8E7BF"/>
</linearGradient>
<linearGradient id="paint19_linear_179_795" x1="247.916" y1="152.746" x2="45.0804" y2="-50.0893" gradientUnits="userSpaceOnUse">
<stop stop-color="#00A452"/>
<stop offset="0.37" stop-color="#00A452"/>
<stop offset="0.69" stop-color="#00A452"/>
<stop offset="1" stop-color="#F8E7BF"/>
</linearGradient>
<linearGradient id="paint20_linear_179_795" x1="258.601" y1="144.917" x2="38.859" y2="-39.4682" gradientUnits="userSpaceOnUse">
<stop stop-color="#00A452"/>
<stop offset="0.37" stop-color="#00A452"/>
<stop offset="0.69" stop-color="#00A452"/>
<stop offset="1" stop-color="#F8E7BF"/>
</linearGradient>
<linearGradient id="paint21_linear_179_795" x1="268.684" y1="136.181" x2="33.7083" y2="-28.3509" gradientUnits="userSpaceOnUse">
<stop stop-color="#00A452"/>
<stop offset="0.37" stop-color="#00A452"/>
<stop offset="0.69" stop-color="#00A452"/>
<stop offset="1" stop-color="#F8E7BF"/>
</linearGradient>
<linearGradient id="paint22_linear_179_795" x1="278.089" y1="126.594" x2="29.6679" y2="-16.8317" gradientUnits="userSpaceOnUse">
<stop stop-color="#00A452"/>
<stop offset="0.37" stop-color="#00A452"/>
<stop offset="0.69" stop-color="#00A452"/>
<stop offset="1" stop-color="#F8E7BF"/>
</linearGradient>
<linearGradient id="paint23_linear_179_795" x1="286.745" y1="116.219" x2="26.7683" y2="-5.00998" gradientUnits="userSpaceOnUse">
<stop stop-color="#00A452"/>
<stop offset="0.37" stop-color="#00A452"/>
<stop offset="0.69" stop-color="#00A452"/>
<stop offset="1" stop-color="#F8E7BF"/>
</linearGradient>
<linearGradient id="paint24_linear_179_795" x1="294.585" y1="105.123" x2="25.0321" y2="7.01408" gradientUnits="userSpaceOnUse">
<stop stop-color="#00A452"/>
<stop offset="0.37" stop-color="#00A452"/>
<stop offset="0.69" stop-color="#00A452"/>
<stop offset="1" stop-color="#F8E7BF"/>
</linearGradient>
<linearGradient id="paint25_linear_179_795" x1="301.55" y1="93.3818" x2="24.4724" y2="19.139" gradientUnits="userSpaceOnUse">
<stop stop-color="#00A452"/>
<stop offset="0.37" stop-color="#00A452"/>
<stop offset="0.69" stop-color="#00A452"/>
<stop offset="1" stop-color="#F8E7BF"/>
</linearGradient>
<linearGradient id="paint26_linear_179_795" x1="307.587" y1="81.072" x2="25.0931" y2="31.2606" gradientUnits="userSpaceOnUse">
<stop stop-color="#00A452"/>
<stop offset="0.37" stop-color="#00A452"/>
<stop offset="0.69" stop-color="#00A452"/>
<stop offset="1" stop-color="#F8E7BF"/>
</linearGradient>
<linearGradient id="paint27_linear_179_795" x1="312.65" y1="68.278" x2="26.8892" y2="43.2772" gradientUnits="userSpaceOnUse">
<stop stop-color="#00A452"/>
<stop offset="0.37" stop-color="#00A452"/>
<stop offset="0.69" stop-color="#00A452"/>
<stop offset="1" stop-color="#F8E7BF"/>
</linearGradient>
<linearGradient id="paint28_linear_179_795" x1="316.701" y1="55.0856" x2="29.8484" y2="55.0856" gradientUnits="userSpaceOnUse">
<stop stop-color="#00A452"/>
<stop offset="0.37" stop-color="#00A452"/>
<stop offset="0.69" stop-color="#00A452"/>
<stop offset="1" stop-color="#F8E7BF"/>
</linearGradient>
</defs>
</svg>
