<svg width="1488" height="325" viewBox="0 0 1488 325" fill="none" xmlns="http://www.w3.org/2000/svg">
<path d="M1477.03 3.50492L1465.32 1M1477.03 3.50492H1442.33M1477.03 3.50492L1489.12 6.09256M1477.03 3.50492H1501.59M1465.32 1L1469.58 1.00098L1473.79 1.0064L1477.92 1.02165L1481.92 1.05168L1485.75 1.10042L1489.36 1.17379L1492.71 1.2757L1495.82 1.40566L1498.49 1.58537L1500.93 1.79362L1501.59 1.86656V3.50492M1465.32 1H1431.18M1431.18 1H1397.05M1431.18 1L1442.33 3.50492M1397.05 1H1362.92M1397.05 1L1407.64 3.50492M1362.92 1H1328.78M1362.92 1L1372.95 3.50492M1328.78 1H1294.65M1328.78 1L1338.26 3.50492M1294.65 1H1260.51M1294.65 1L1303.57 3.50492M1260.51 1H1226.38M1260.51 1L1268.88 3.50492M1226.38 1H1192.25M1226.38 1L1234.18 3.50492M1192.25 1H1158.11M1192.25 1L1199.49 3.50492M1158.11 1H1123.98M1158.11 1L1164.8 3.50492M1123.98 1H1089.84M1123.98 1L1130.11 3.50492M1089.84 1H1055.71M1089.84 1L1095.42 3.50492M1055.71 1H1021.57M1055.71 1L1056.95 1.61884L1058.83 2.55573L1060.73 3.50492M1021.57 1H987.44M1021.57 1L1022.67 1.61884L1026.03 3.50492M987.44 1H953.306M987.44 1L991.342 3.50492M953.306 1H919.171M953.306 1L954.547 1.92998L955.804 2.87081L956.226 3.18738L956.651 3.50492M919.171 1H885.037M919.171 1L920.206 1.92998L920.554 2.24211L920.903 2.55573L921.959 3.50492M885.037 1H850.903M885.037 1L887.267 3.50492M850.903 1L851.109 1.30868L851.315 1.61884L852.363 3.18738L852.575 3.50492M850.903 1H816.769M816.769 1H782.634M816.769 1L817.884 3.50492M782.634 1H748.5M782.634 1L782.841 1.92998L783.192 3.50492M748.5 1H714.366M748.5 1V3.50492M714.366 1H680.231M714.366 1L714.159 1.92998L713.808 3.50492M680.231 1H646.097M680.231 1L679.117 3.50492M646.097 1L645.891 1.30868L645.685 1.61884L644.637 3.18738L644.425 3.50492M646.097 1H611.963M611.963 1H577.828M611.963 1L610.016 3.18738L609.733 3.50492M577.828 1H543.694M577.828 1L576.794 1.92998L576.446 2.24211L575.746 2.87081L575.395 3.18738L575.041 3.50492M543.694 1H509.56M543.694 1L542.453 1.92998L541.196 2.87081L540.774 3.18738L540.349 3.50492M509.56 1H475.426M509.56 1L505.658 3.50492M475.426 1H441.292M475.426 1L474.325 1.61884L470.967 3.50492M441.292 1H407.158M441.292 1L436.275 3.50492M407.158 1H373.024M407.158 1L401.583 3.50492M373.024 1H338.889M373.024 1L366.891 3.50492M338.889 1H304.755M338.889 1L332.2 3.50492M304.755 1H270.621M304.755 1L297.508 3.50492M270.621 1H236.487M270.621 1L262.816 3.50492M236.487 1H202.352M236.487 1L228.124 3.50492M202.352 1H168.218M202.352 1L193.433 3.50492M168.218 1H134.084M168.218 1L158.741 3.50492M134.084 1H99.9492M134.084 1L124.049 3.50492M99.9492 1H65.8152M99.9492 1L89.358 3.50492M65.8152 1H31.6812M65.8152 1L54.6663 3.50492M31.6812 1L27.4215 1.00098L23.2057 1.0064L19.0778 1.02165L15.0794 1.05168L11.2543 1.10042L7.64336 1.17379L4.28974 1.2757L1.17694 1.40566L-1.49419 1.58537L-3.92605 1.79362L-4.59442 1.86658V3.50492M31.6812 1L19.9745 3.50492M89.358 3.50492H124.049M89.358 3.50492H54.6663M89.358 3.50492L78.4138 6.09256M124.049 3.50492L113.681 6.09256M124.049 3.50492H158.741M228.124 3.50492H262.816M228.124 3.50492H193.433M228.124 3.50492L225.991 4.14395L219.485 6.09256M262.816 3.50492L254.752 6.09256M262.816 3.50492H297.508M366.891 3.50492H401.583M366.891 3.50492H332.2M366.891 3.50492L365.327 4.14395L364.54 4.46495L360.555 6.09256M401.583 3.50492L400.873 3.82345L400.161 4.14395L395.823 6.09256M401.583 3.50492H436.275M505.658 3.50492L505.161 3.82345L501.626 6.09256M505.658 3.50492H540.349M505.658 3.50492H470.967M540.349 3.50492L539.497 4.14395L539.067 4.46495L538.636 4.78791L536.894 6.09256M540.349 3.50492H575.041M644.425 3.50492H679.117M644.425 3.50492H609.733M644.425 3.50492L642.697 6.09256M679.117 3.50492L678.974 3.82345L678.833 4.14395L678.689 4.46495L678.256 5.43728L677.965 6.09256M679.117 3.50492H713.808M783.192 3.50492H817.884M783.192 3.50492H748.5M783.192 3.50492L783.768 6.09256M817.884 3.50492L818.025 3.82345L818.167 4.14395L818.311 4.46495L819.035 6.09256M817.884 3.50492H852.575M921.959 3.50492H956.651M921.959 3.50492H887.267M921.959 3.50492L922.67 4.14395L924.11 5.43728L924.473 5.76418L924.839 6.09256M956.651 3.50492L957.503 4.14395L957.933 4.46495L958.364 4.78791L960.106 6.09256M956.651 3.50492H991.342M1060.73 3.50492H1095.42M1060.73 3.50492H1026.03M1060.73 3.50492L1062.01 4.14395L1062.65 4.46495L1065.91 6.09256M1095.42 3.50492L1096.13 3.82345L1096.84 4.14395L1101.18 6.09256M1095.42 3.50492H1130.11M1199.49 3.50492H1234.18M1199.49 3.50492H1164.8M1199.49 3.50492L1201.34 4.14395L1202.27 4.46495L1206.98 6.09256M1234.18 3.50492L1242.25 6.09256M1234.18 3.50492H1268.88M1338.26 3.50492H1372.95M1338.26 3.50492H1303.57M1338.26 3.50492L1348.05 6.09256M1372.95 3.50492L1383.32 6.09256M1372.95 3.50492H1407.64M-4.71602 26.9295H-4.59442M30.2017 26.9295L43.4467 23.6236M30.2017 26.9295L16.4491 30.362M30.2017 26.9295H70.1071M30.2017 26.9295H-4.59442M43.4467 23.6236H4.27719M43.4467 23.6236L56.2125 20.4373M43.4467 23.6236H82.6163M4.27719 23.6236L17.7521 20.4373M4.27719 23.6236H-4.59442M4.27719 23.6236L-4.59442 25.7209M43.2883 14.3985H80.4048M43.2883 14.3985L55.399 11.5347M43.2883 14.3985H6.17247M43.2883 14.3985L30.7469 17.3642M80.4048 14.3985L91.8785 11.5347M80.4048 14.3985L68.524 17.3642M80.4048 14.3985H117.521M55.399 11.5347H91.8785M55.399 11.5347L67.1009 8.76782M55.399 11.5347H18.9202M91.8785 11.5347H128.357M91.8785 11.5347L102.964 8.76782M-4.97646 79.1105H-4.59442M27.223 79.1105L44.3026 73.6295M27.223 79.1105L9.29467 84.8643M27.223 79.1105H78.7433M27.223 79.1105H-4.59442M44.3026 73.6295L60.5922 68.4021M44.3026 73.6295H94.6022M44.3026 73.6295H-4.59442M11.4559 68.4021H60.5922M11.4559 68.4021L28.1197 63.4109M11.4559 68.4021H-4.59442M11.4559 68.4021L-4.59442 73.2094M44.0461 58.6404H91.0093M44.0461 58.6404L59.2837 54.0765M44.0461 58.6404H-2.91722M44.0461 58.6404L28.1197 63.4109M91.0093 58.6404L105.232 54.0765M91.0093 58.6404L76.1444 63.4109M91.0093 58.6404H137.973M59.2837 54.0765H105.232M59.2837 54.0765H13.3363M59.2837 54.0765L73.8764 49.7057M105.232 54.0765L118.851 49.7057M105.232 54.0765H151.179M101.283 41.4968H144.43M101.283 41.4968L114.168 37.6375M101.283 41.4968H58.1352M101.283 41.4968L87.8636 45.5161M144.43 41.4968L156.456 37.6375M144.43 41.4968L131.906 45.5161M144.43 41.4968H187.579M114.168 37.6375H156.456M114.168 37.6375H71.8792M114.168 37.6375L126.55 33.9288M156.456 37.6375L168.013 33.9288M156.456 37.6375H198.746M149.918 26.9295H189.823M149.918 26.9295L160.955 23.6236M149.918 26.9295H110.012M149.918 26.9295L138.457 30.362M189.823 26.9295L200.125 23.6236M189.823 26.9295L179.127 30.362M189.823 26.9295H229.729M160.955 23.6236H200.125M160.955 23.6236H121.786M160.955 23.6236L171.594 20.4373M200.125 23.6236L210.054 20.4373M200.125 23.6236H239.294M191.754 14.3985H228.87M191.754 14.3985L201.315 11.5347M191.754 14.3985H154.638M191.754 14.3985L181.853 17.3642M228.87 14.3985L237.794 11.5347M228.87 14.3985L219.629 17.3642M228.87 14.3985H265.987M201.315 11.5347H237.794M201.315 11.5347L210.554 8.76782M201.315 11.5347H164.836M237.794 11.5347H274.273M237.794 11.5347L246.417 8.76782M21.8007 174.135L45.8386 163.335M21.8007 174.135L-3.94096 185.7M21.8007 174.135H94.4704M21.8007 174.135H-4.59442M45.8386 163.335L68.3381 153.227M45.8386 163.335H116.105M45.8386 163.335H-4.59442M45.3506 134.835H109.273M45.3506 134.835L65.8921 126.445M45.3506 134.835L23.5344 143.746M45.3506 134.835H-4.59442M109.273 134.835L127.947 126.445M109.273 134.835L89.4404 143.746M109.273 134.835H173.196M65.8921 126.445H127.947M65.8921 126.445H3.8371M65.8921 126.445L85.2678 118.531M127.947 126.445L145.562 118.531M127.947 126.445H190.003M120.895 103.979H177.951M120.895 103.979L137.312 97.2742M120.895 103.979H63.8407M120.895 103.979L103.573 111.055M177.951 103.979L192.875 97.2742M177.951 103.979L162.203 111.055M177.951 103.979H235.006M137.312 97.2742H192.875M137.312 97.2742H81.7494M137.312 97.2742L152.891 90.911M192.875 97.2742L207.038 90.911M192.875 97.2742H248.437M181.782 79.1105H233.303M181.782 79.1105L195.202 73.6295M181.782 79.1105H130.263M181.782 79.1105L167.696 84.8643M233.303 79.1105L245.502 73.6295M233.303 79.1105L220.496 84.8643M233.303 79.1105H284.822M195.202 73.6295H245.502M195.202 73.6295H144.903M195.202 73.6295L208.001 68.4021M245.502 73.6295L257.137 68.4021M245.502 73.6295H295.802M231.901 58.6404H278.864M231.901 58.6404L243.075 54.0765M231.901 58.6404H184.937M231.901 58.6404L220.221 63.4109M278.864 58.6404L289.023 54.0765M278.864 58.6404L268.246 63.4109M278.864 58.6404H325.827M243.075 54.0765H289.023M243.075 54.0765H197.127M243.075 54.0765L253.776 49.7057M289.023 54.0765L298.751 49.7057M289.023 54.0765H334.97M273.874 41.4968H317.022M273.874 41.4968L283.323 37.6375M273.874 41.4968H230.726M273.874 41.4968L264.034 45.5161M317.022 41.4968L318.115 41.0059L325.612 37.6375M317.022 41.4968L308.076 45.5161M317.022 41.4968H360.17M283.323 37.6375H325.612M283.323 37.6375H241.034M283.323 37.6375L292.403 33.9288M325.612 37.6375L333.867 33.9288M325.612 37.6375H367.901M309.539 26.9295H349.445M309.539 26.9295L317.634 23.6236M309.539 26.9295H269.634M309.539 26.9295L301.135 30.362M349.445 26.9295L356.804 23.6236M349.445 26.9295L346.614 28.2017L341.805 30.362M349.445 26.9295H389.351M317.634 23.6236H356.804M317.634 23.6236H278.465M317.634 23.6236L325.435 20.4373M356.804 23.6236L363.895 20.4373M356.804 23.6236H395.973M340.219 14.3985H377.336M340.219 14.3985L347.231 11.5347M340.219 14.3985H303.103M340.219 14.3985L332.959 17.3642M377.336 14.3985L382.138 12.2416L382.925 11.8872L383.71 11.5347M377.336 14.3985L370.735 17.3642M377.336 14.3985H414.452M347.231 11.5347H383.71M347.231 11.5347L354.006 8.76782M347.231 11.5347H310.752M383.71 11.5347H420.189M383.71 11.5347L389.869 8.76782M48.13 297.162H148.183M48.13 297.162L79.6345 276.942M48.13 297.162L13.5112 319.382M48.13 297.162L-4.59442 297.163M148.183 297.162L175.187 276.942M148.183 297.162L118.51 319.382M148.183 297.162H248.236M79.6345 276.942H175.187M79.6345 276.942L108.427 258.462M79.6345 276.942H-4.59442M175.187 276.942L199.866 258.462M175.187 276.942H270.739M159.164 225.897H243.356M159.164 225.897L181.632 211.476M159.164 225.897H74.9739M159.164 225.897L134.843 241.507M243.356 225.897L262.613 211.476M243.356 225.897L222.508 241.507M243.356 225.897H327.546M181.632 211.476H262.613M181.632 211.476H100.651M181.632 211.476L202.449 198.115M262.613 211.476L280.457 198.115M262.613 211.476H343.594M239.811 174.135H312.48M239.811 174.135L256.638 163.335M239.811 174.135H167.14M239.811 174.135L221.791 185.7M312.48 174.135L326.904 163.335M312.48 174.135L297.036 185.7M312.48 174.135H385.15M256.638 163.335H326.904M256.638 163.335H186.371M256.638 163.335L272.387 153.227M326.904 163.335L340.403 153.227M326.904 163.335H397.17M301.041 134.835H364.964M301.041 134.835L314.114 126.445M301.041 134.835H237.119M301.041 134.835L287.158 143.746M364.964 134.835L376.169 126.445M364.964 134.835L353.064 143.746M364.964 134.835H428.887M314.114 126.445H376.169M314.114 126.445H252.058M314.114 126.445L326.443 118.531M376.169 126.445L386.737 118.531M376.169 126.445H438.224M349.115 103.979H406.171M349.115 103.979L359.562 97.2742M349.115 103.979H292.06M349.115 103.979L338.092 111.055M406.171 103.979L415.125 97.2742M406.171 103.979L396.722 111.055M406.171 103.979H463.225M359.562 97.2742H415.125M359.562 97.2742H303.999M359.562 97.2742L369.476 90.911M415.125 97.2742L423.622 90.911M415.125 97.2742H470.687M387.862 79.1105H439.381M387.862 79.1105L396.402 73.6295M387.862 79.1105H336.342M387.862 79.1105L378.898 84.8643M439.381 79.1105L446.701 73.6295M439.381 79.1105L431.698 84.8643M439.381 79.1105H490.901M396.402 73.6295H446.701M396.402 73.6295H346.101M396.402 73.6295L404.546 68.4021M446.701 73.6295L453.682 68.4021M446.701 73.6295H497.001M419.755 58.6404H466.719M419.755 58.6404L426.866 54.0765M419.755 58.6404H372.791M419.755 58.6404L412.323 63.4109M466.719 58.6404L472.813 54.0765M466.719 58.6404L460.348 63.4109M466.719 58.6404H513.682M426.866 54.0765H472.813M426.866 54.0765H380.918M426.866 54.0765L433.676 49.7057M472.813 54.0765L478.651 49.7057M472.813 54.0765H518.762M446.465 41.4968H489.614M446.465 41.4968L452.478 37.6375M446.465 41.4968H403.318M446.465 41.4968L440.203 45.5161M489.614 41.4968L488.954 41.9901L484.245 45.5161M489.614 41.4968L494.767 37.6375M489.614 41.4968H532.761M452.478 37.6375H494.767M452.478 37.6375H410.19M452.478 37.6375L458.257 33.9288M494.767 37.6375L499.72 33.9288M494.767 37.6375H537.056M469.162 26.9295H509.067M469.162 26.9295L474.312 23.6236M469.162 26.9295H429.256M469.162 26.9295L463.814 30.362M509.067 26.9295L513.482 23.6236M509.067 26.9295L507.369 28.2017L506.222 29.0598L504.483 30.362M509.067 26.9295H548.972M474.312 23.6236H513.482M474.312 23.6236H435.143M474.312 23.6236L479.277 20.4373M513.482 23.6236L515.096 22.4149L516.16 21.6184L517.738 20.4373M513.482 23.6236H552.652M488.686 14.3985H525.801M488.686 14.3985L492.046 12.2416L493.147 11.5347M488.686 14.3985H451.569M488.686 14.3985L484.651 16.9876L484.065 17.3642M525.801 14.3985L528.683 12.2416L529.155 11.8872L529.626 11.5347M525.801 14.3985L523.839 15.8681L521.841 17.3642M525.801 14.3985H562.918M493.147 11.5347H529.626M493.147 11.5347L497.458 8.76782M493.147 11.5347H456.668M529.626 11.5347H566.105M529.626 11.5347L533.321 8.76782M448.342 297.162H548.394M448.342 297.162L461.843 276.942M448.342 297.162H348.289M448.342 297.162L433.505 319.382M548.394 297.162L557.396 276.942M548.394 297.162L538.504 319.382M548.394 297.162H648.447M461.843 276.942H557.396M461.843 276.942H366.291M461.843 276.942L474.183 258.462M557.396 276.942L565.622 258.462M557.396 276.942H652.948M495.928 225.897H580.118M495.928 225.897L505.556 211.476M495.928 225.897H411.737M495.928 225.897L485.504 241.507M580.118 225.897L586.538 211.476M580.118 225.897L573.169 241.507M580.118 225.897H664.31M505.556 211.476H586.538M505.556 211.476H424.575M505.556 211.476L514.478 198.115M586.538 211.476L592.486 198.115M586.538 211.476H667.519M530.49 174.135H603.16M530.49 174.135L537.702 163.335M530.49 174.135H457.82M530.49 174.135L522.768 185.7M603.16 174.135L607.968 163.335M603.16 174.135L598.012 185.7M603.16 174.135H675.83M537.702 163.335H607.968M537.702 163.335H467.436M537.702 163.335L544.451 153.227M607.968 163.335L612.468 153.227M607.968 163.335H678.234M556.732 134.835H620.654M556.732 134.835L562.334 126.445M556.732 134.835H492.81M556.732 134.835L550.782 143.746M620.654 134.835L624.389 126.445M620.654 134.835L616.688 143.746M620.654 134.835H684.577M562.334 126.445H624.389M562.334 126.445H500.279M562.334 126.445L567.618 118.531M624.389 126.445L627.912 118.531M624.389 126.445H686.445M577.335 103.979H634.391M577.335 103.979L581.812 97.2742M577.335 103.979H520.28M577.335 103.979L572.611 111.055M634.391 103.979L637.375 97.2742M634.391 103.979L631.241 111.055M634.391 103.979H691.445M581.812 97.2742H637.375M581.812 97.2742H526.25M581.812 97.2742L586.061 90.911M637.375 97.2742L640.207 90.911M637.375 97.2742H692.937M593.941 79.1105H645.46M593.941 79.1105L597.6 73.6295M593.941 79.1105H542.421M593.941 79.1105L590.099 84.8643M645.46 79.1105L647.901 73.6295M645.46 79.1105L642.899 84.8643M645.46 79.1105H696.981M597.6 73.6295H647.901M597.6 73.6295H547.301M597.6 73.6295L598.929 71.6406L601.091 68.4021M647.901 73.6295L650.227 68.4021M647.901 73.6295H698.2M607.609 58.6404H654.573M607.609 58.6404L610.657 54.0765M607.609 58.6404H560.645M607.609 58.6404L605.234 62.1984L604.424 63.4109M654.573 58.6404L655.345 56.9054L656.604 54.0765M654.573 58.6404L652.449 63.4109M654.573 58.6404H701.537M610.657 54.0765L611.028 53.5197L613.575 49.7057M610.657 54.0765H656.604M610.657 54.0765H564.709M656.604 54.0765L657.344 52.4155L657.587 51.8675L657.831 51.323L658.55 49.7057M656.604 54.0765H702.553M619.056 41.4968H662.204M619.056 41.4968L620.358 39.5477L620.68 39.0667L620.999 38.5877L621.317 38.1116L621.633 37.6375M619.056 41.4968H575.909M619.056 41.4968L616.373 45.5161M662.204 41.4968L663.499 38.5877L663.712 38.1116L663.922 37.6375M662.204 41.4968L660.415 45.5161M662.204 41.4968H705.352M621.633 37.6375H663.922M621.633 37.6375H579.345M621.633 37.6375L623.193 35.3024L623.5 34.8421L624.11 33.9288M663.922 37.6375L664.961 35.3024L665.167 34.8421L665.37 34.3842L665.573 33.9288M663.922 37.6375H706.211M628.784 26.9295H668.689M628.784 26.9295L630.991 23.6236M628.784 26.9295H588.878M628.784 26.9295L628.218 27.7753L627.361 29.0598L626.492 30.362M668.689 26.9295L668.501 27.3514L667.355 29.9258L667.161 30.362M668.689 26.9295L670.161 23.6236M668.689 26.9295H708.595M630.991 23.6236H670.161M630.991 23.6236H591.822M630.991 23.6236L633.119 20.4373M670.161 23.6236L670.699 22.4149L670.876 22.0157L671.054 21.6184L671.579 20.4373M670.161 23.6236H709.33M637.151 14.3985H674.267M637.151 14.3985L638.591 12.2416L639.063 11.5347M637.151 14.3985H600.035M637.151 14.3985L636.416 15.4983L636.17 15.8681L635.921 16.2398L635.17 17.3642M674.267 14.3985L674.429 14.0352L674.75 13.3129L675.069 12.5971L675.542 11.5347M674.267 14.3985L673.613 15.8681L673.448 16.2398L673.114 16.9876L672.947 17.3642M674.267 14.3985H711.383M639.063 11.5347H675.542M639.063 11.5347L640.683 9.10851L640.911 8.76782M639.063 11.5347H602.584M675.542 11.5347L675.699 11.1836L675.854 10.8341L676.009 10.486L676.163 10.1394L676.622 9.10851L676.774 8.76782M675.542 11.5347H712.021M848.553 297.162H948.606M848.553 297.162L844.052 276.942M848.553 297.162H748.5M848.553 297.162L853.499 319.382M948.606 297.162L939.605 276.942M948.606 297.162L958.496 319.382M948.606 297.162H1048.66M844.052 276.942H939.605M844.052 276.942H748.5M844.052 276.942L839.939 258.462M939.605 276.942L931.378 258.462M939.605 276.942H1035.16M832.69 225.897H916.882M832.69 225.897L829.481 211.476M832.69 225.897H748.5M832.69 225.897L836.166 241.507M916.882 225.897L910.462 211.476M916.882 225.897L923.831 241.507M916.882 225.897H1001.07M829.481 211.476H910.462M829.481 211.476H748.5M829.481 211.476L826.507 198.115M910.462 211.476L904.515 198.115M910.462 211.476H991.443M821.17 174.135H893.84M821.17 174.135L818.766 163.335M821.17 174.135H748.5M821.17 174.135L823.744 185.7M893.84 174.135L889.032 163.335M893.84 174.135L898.988 185.7M893.84 174.135H966.51M818.766 163.335H889.032M818.766 163.335H748.5M818.766 163.335L816.516 153.227M889.032 163.335L884.532 153.227M889.032 163.335H959.298M812.423 134.835H876.346M812.423 134.835L810.555 126.445M812.423 134.835H748.5M812.423 134.835L814.406 143.746M876.346 134.835L872.611 126.445M876.346 134.835L880.312 143.746M876.346 134.835H940.268M810.555 126.445H872.611M810.555 126.445H748.5M810.555 126.445L808.794 118.531M872.611 126.445L869.088 118.531M872.611 126.445H934.666M805.555 103.979H862.609M805.555 103.979L804.063 97.2742M805.555 103.979H748.5M805.555 103.979L807.13 111.055M862.609 103.979L859.625 97.2742M862.609 103.979L865.759 111.055M862.609 103.979H919.665M804.063 97.2742H859.625M804.063 97.2742H748.5M804.063 97.2742L802.646 90.911M859.625 97.2742L856.793 90.911M859.625 97.2742H915.188M800.019 79.1105H851.54M800.019 79.1105L798.8 73.6295M800.019 79.1105H748.5M800.019 79.1105L801.301 84.8643M851.54 79.1105L849.099 73.6295M851.54 79.1105L854.101 84.8643M851.54 79.1105H903.059M798.8 73.6295H849.099M798.8 73.6295H748.5M798.8 73.6295L797.636 68.4021M849.099 73.6295L846.772 68.4021M849.099 73.6295H899.4M795.463 58.6404H842.427M795.463 58.6404L794.447 54.0765M795.463 58.6404H748.5M795.463 58.6404L796.525 63.4109M842.427 58.6404L840.644 54.6363L840.395 54.0765M842.427 58.6404L844.551 63.4109M842.427 58.6404H889.391M794.447 54.0765L794.324 53.5197L793.475 49.7057M794.447 54.0765H840.395M794.447 54.0765H748.5M840.395 54.0765L839.656 52.4155L839.413 51.8675L839.169 51.323L838.45 49.7057M840.395 54.0765H886.343M791.648 41.4968H834.796M791.648 41.4968L790.789 37.6375M791.648 41.4968H748.5M791.648 41.4968L791.979 42.9846L792.091 43.4858L792.202 43.9894L792.428 45.0046L792.543 45.5161M834.796 41.4968L833.501 38.5877L833.077 37.6375M834.796 41.4968L836.585 45.5161M834.796 41.4968H877.944M790.789 37.6375H833.077M790.789 37.6375H748.5M790.789 37.6375L789.963 33.9288M833.077 37.6375L832.039 35.3024L831.833 34.8421L831.63 34.3842L831.427 33.9288M833.077 37.6375H875.367M788.405 26.9295H828.311M788.405 26.9295L787.67 23.6236M788.405 26.9295H748.5M788.405 26.9295L789.169 30.362M828.311 26.9295L828.499 27.3514L829.645 29.9258L829.839 30.362M828.311 26.9295L826.839 23.6236M828.311 26.9295H868.216M787.67 23.6236H826.839M787.67 23.6236H748.5M787.67 23.6236L786.96 20.4373M826.839 23.6236L826.301 22.4149L826.124 22.0157L825.946 21.6184L825.421 20.4373M826.839 23.6236H866.009M785.617 14.3985H822.733M785.617 14.3985L784.979 11.5347M785.617 14.3985H748.5M785.617 14.3985L786.276 17.3642M822.733 14.3985L822.571 14.0352L822.249 13.3129L822.09 12.954L821.772 12.2416L821.615 11.8872L821.458 11.5347M822.733 14.3985L823.387 15.8681L823.552 16.2398L823.886 16.9876L824.053 17.3642M822.733 14.3985H859.849M784.979 11.5347L784.901 11.1836L784.823 10.8341L784.746 10.486L784.363 8.76782M784.979 11.5347H821.458M784.979 11.5347H748.5M821.458 11.5347H857.937M821.458 11.5347L821.146 10.8341L820.991 10.486L820.837 10.1394L820.378 9.10851L820.226 8.76782M1248.76 297.162H1348.82M1248.76 297.162L1226.26 276.942M1248.76 297.162H1148.71M1248.76 297.162L1273.49 319.382M1348.82 297.162L1321.81 276.942M1348.82 297.162L1378.49 319.382M1348.82 297.162H1448.87M1226.26 276.942H1321.81M1226.26 276.942H1130.71M1226.26 276.942L1205.7 258.462M1321.81 276.942L1297.13 258.462M1321.81 276.942H1417.37M1169.45 225.897H1253.65M1169.45 225.897L1153.41 211.476M1169.45 225.897H1085.26M1169.45 225.897L1186.83 241.507M1253.65 225.897L1234.39 211.476M1253.65 225.897L1274.49 241.507M1253.65 225.897H1337.84M1153.41 211.476H1234.39M1153.41 211.476H1072.42M1153.41 211.476L1138.54 198.115M1234.39 211.476L1216.54 198.115M1234.39 211.476H1315.37M1111.85 174.135H1184.52M1111.85 174.135L1099.83 163.335M1111.85 174.135H1039.18M1111.85 174.135L1124.72 185.7M1184.52 174.135L1170.1 163.335M1184.52 174.135L1199.96 185.7M1184.52 174.135H1257.19M1099.83 163.335H1170.1M1099.83 163.335H1029.56M1099.83 163.335L1088.58 153.227M1170.1 163.335L1156.6 153.227M1170.1 163.335H1240.36M1068.11 134.835H1132.04M1068.11 134.835L1058.78 126.445M1068.11 134.835H1004.19M1068.11 134.835L1078.03 143.746M1132.04 134.835L1120.83 126.445M1132.04 134.835L1143.94 143.746M1132.04 134.835H1195.96M1058.78 126.445H1120.83M1058.78 126.445H996.721M1058.78 126.445L1049.97 118.531M1120.83 126.445L1110.26 118.531M1120.83 126.445H1182.89M1033.77 103.979H1090.83M1033.77 103.979L1026.31 97.2742M1033.77 103.979H976.72M1033.77 103.979L1041.65 111.055M1090.83 103.979L1081.88 97.2742M1090.83 103.979L1100.28 111.055M1090.83 103.979H1147.88M1026.31 97.2742H1081.88M1026.31 97.2742H970.75M1026.31 97.2742L1019.23 90.911M1081.88 97.2742L1073.38 90.911M1081.88 97.2742H1137.44M1006.1 79.1105H1057.62M1006.1 79.1105L999.999 73.6295M1006.1 79.1105H954.579M1006.1 79.1105L1012.5 84.8643M1057.62 79.1105L1050.3 73.6295M1057.62 79.1105L1065.3 84.8643M1057.62 79.1105H1109.14M999.999 73.6295H1050.3M999.999 73.6295H949.699M999.999 73.6295L994.181 68.4021M1050.3 73.6295L1043.32 68.4021M1050.3 73.6295H1100.6M983.318 58.6404L983.968 59.2252L984.623 59.8131L988.626 63.4109M983.318 58.6404H1030.28M983.318 58.6404L978.239 54.0765M983.318 58.6404H936.355M1030.28 58.6404L1024.19 54.0765M1030.28 58.6404L1036.65 63.4109M1030.28 58.6404H1077.25M978.239 54.0765H1024.19M978.239 54.0765H932.291M978.239 54.0765L973.375 49.7057M1024.19 54.0765L1018.35 49.7057M1024.19 54.0765H1070.13M964.239 41.4968H1007.39M964.239 41.4968L959.944 37.6375M964.239 41.4968H921.091M964.239 41.4968L968.712 45.5161M1007.39 41.4968L1004.14 39.0667L1002.23 37.6375M1007.39 41.4968L1012.75 45.5161M1007.39 41.4968H1050.53M959.944 37.6375H1002.23M959.944 37.6375H917.655M959.944 37.6375L956.324 34.3842L955.817 33.9288M1002.23 37.6375L997.28 33.9288M1002.23 37.6375H1044.52M948.028 26.9295H987.933M948.028 26.9295L947.095 26.0911L944.348 23.6236M948.028 26.9295H908.122M948.028 26.9295L948.969 27.7753L950.879 29.4915L951.847 30.362M987.933 26.9295L983.518 23.6236M987.933 26.9295L989.631 28.2017L990.777 29.0598L992.517 30.362M987.933 26.9295H1027.84M944.348 23.6236H983.518M944.348 23.6236H905.178M944.348 23.6236L941.677 21.2225L940.802 20.4373M983.518 23.6236L981.904 22.4149L980.84 21.6184L979.262 20.4373M983.518 23.6236H1022.69M934.082 14.3985H971.199M934.082 14.3985L932.077 12.5971L930.895 11.5347M934.082 14.3985H896.965M934.082 14.3985L937.382 17.3642M971.199 14.3985L968.317 12.2416L967.845 11.8872L967.373 11.5347M971.199 14.3985L973.161 15.8681L975.159 17.3642M971.199 14.3985H1008.31M930.895 11.5347H967.373M930.895 11.5347L929.342 10.1394L928.576 9.45067L928.195 9.10851L927.816 8.76782M930.895 11.5347H894.416M967.373 11.5347H1003.85M967.373 11.5347L963.679 8.76782M1477.33 211.476H1396.35M1477.33 211.476L1450.57 198.115M1477.33 211.476H1501.59M1477.33 211.476L1501.59 223.589M1402.53 174.135H1475.2M1402.53 174.135L1380.9 163.335M1402.53 174.135H1329.86M1402.53 174.135L1425.7 185.7M1475.2 174.135L1451.16 163.335M1475.2 174.135L1500.94 185.7M1475.2 174.135H1501.59M1380.9 163.335H1451.16M1380.9 163.335H1310.63M1380.9 163.335L1360.65 153.227M1451.16 163.335L1428.66 153.227M1451.16 163.335H1501.59M1323.8 134.835H1387.73M1323.8 134.835L1307 126.445M1323.8 134.835H1259.88M1323.8 134.835L1341.65 143.746M1387.73 134.835L1369.05 126.445M1387.73 134.835L1407.56 143.746M1387.73 134.835H1451.65M1307 126.445H1369.05M1307 126.445H1244.94M1307 126.445L1291.14 118.531M1369.05 126.445L1351.44 118.531M1369.05 126.445H1431.11M1261.99 103.979H1319.05M1261.99 103.979L1248.56 97.2742M1261.99 103.979H1204.94M1261.99 103.979L1276.17 111.055M1319.05 103.979L1304.13 97.2742M1319.05 103.979L1334.8 111.055M1319.05 103.979H1376.1M1248.56 97.2742H1304.13M1248.56 97.2742H1193M1248.56 97.2742L1235.82 90.911M1304.13 97.2742L1289.96 90.911M1304.13 97.2742H1359.69M1212.18 79.1105H1263.7M1212.18 79.1105L1201.2 73.6295M1212.18 79.1105H1160.66M1212.18 79.1105L1223.7 84.8643M1263.7 79.1105L1251.5 73.6295M1263.7 79.1105L1276.5 84.8643M1263.7 79.1105H1315.22M1201.2 73.6295H1251.5M1201.2 73.6295H1150.9M1201.2 73.6295L1190.73 68.4021M1251.5 73.6295L1239.86 68.4021M1251.5 73.6295H1301.8M1171.17 58.6404H1218.14M1171.17 58.6404L1162.03 54.0765M1171.17 58.6404H1124.21M1171.17 58.6404L1180.73 63.4109M1218.14 58.6404L1207.98 54.0765M1218.14 58.6404L1228.75 63.4109M1218.14 58.6404H1265.1M1162.03 54.0765H1207.98M1162.03 54.0765H1116.08M1162.03 54.0765L1153.27 49.7057M1207.98 54.0765L1198.25 49.7057M1207.98 54.0765H1253.93M1136.83 41.4968H1179.98M1136.83 41.4968L1129.1 37.6375M1136.83 41.4968H1093.68M1136.83 41.4968L1144.88 45.5161M1179.98 41.4968L1171.39 37.6375M1179.98 41.4968L1188.92 45.5161M1179.98 41.4968H1223.13M1129.1 37.6375H1171.39M1129.1 37.6375H1086.81M1129.1 37.6375L1121.67 33.9288M1171.39 37.6375L1163.13 33.9288M1171.39 37.6375H1213.68M1107.65 26.9295H1147.55M1107.65 26.9295L1101.03 23.6236M1107.65 26.9295H1067.74M1107.65 26.9295L1109.34 27.7753L1110.2 28.2017L1114.53 30.362M1147.55 26.9295L1140.2 23.6236M1147.55 26.9295L1155.2 30.362M1147.55 26.9295H1187.46M1101.03 23.6236H1140.2M1101.03 23.6236H1061.86M1101.03 23.6236L1094.64 20.4373M1140.2 23.6236L1133.1 20.4373M1140.2 23.6236H1179.37M1082.55 14.3985H1119.66M1082.55 14.3985L1076.81 11.5347M1082.55 14.3985H1045.43M1082.55 14.3985L1088.49 17.3642M1119.66 14.3985L1114.86 12.2416L1114.07 11.8872L1113.29 11.5347M1119.66 14.3985L1126.26 17.3642M1119.66 14.3985H1156.78M1076.81 11.5347H1113.29M1076.81 11.5347L1071.95 9.10851L1071.27 8.76782M1076.81 11.5347H1040.33M1113.29 11.5347H1149.77M1113.29 11.5347L1107.13 8.76782M1490.21 103.979L1470.81 97.2742M1490.21 103.979H1433.16M1490.21 103.979L1501.59 107.912M1490.21 103.979H1501.59M1470.81 97.2742H1415.25M1470.81 97.2742L1452.4 90.911M1470.81 97.2742H1501.59M1418.26 79.1105H1469.78M1418.26 79.1105L1402.4 73.6295M1418.26 79.1105H1366.74M1418.26 79.1105L1434.9 84.8643M1469.78 79.1105L1452.7 73.6295M1469.78 79.1105L1487.71 84.8643M1469.78 79.1105H1501.59M1402.4 73.6295H1452.7M1402.4 73.6295H1352.1M1402.4 73.6295L1387.27 68.4021M1452.7 73.6295L1436.41 68.4021M1452.7 73.6295H1501.59M1359.03 58.6404H1405.99M1359.03 58.6404L1345.82 54.0765M1359.03 58.6404H1312.06M1359.03 58.6404L1372.83 63.4109M1405.99 58.6404L1391.77 54.0765M1405.99 58.6404L1420.85 63.4109M1405.99 58.6404H1452.95M1345.82 54.0765H1391.77M1345.82 54.0765H1299.87M1345.82 54.0765L1333.17 49.7057M1391.77 54.0765L1378.15 49.7057M1391.77 54.0765H1437.72M1309.42 41.4968H1352.57M1309.42 41.4968L1298.25 37.6375M1309.42 41.4968H1266.27M1309.42 41.4968L1321.05 45.5161M1352.57 41.4968L1340.54 37.6375M1352.57 41.4968L1365.09 45.5161M1352.57 41.4968H1395.72M1298.25 37.6375H1340.54M1298.25 37.6375H1255.97M1298.25 37.6375L1287.52 33.9288M1340.54 37.6375L1328.99 33.9288M1340.54 37.6375H1382.83M1267.27 26.9295H1307.18M1267.27 26.9295L1257.71 23.6236M1267.27 26.9295H1227.37M1267.27 26.9295L1277.2 30.362M1307.18 26.9295L1296.88 23.6236M1307.18 26.9295L1317.87 30.362M1307.18 26.9295H1347.08M1257.71 23.6236H1296.88M1257.71 23.6236H1218.54M1257.71 23.6236L1248.49 20.4373M1296.88 23.6236L1286.95 20.4373M1296.88 23.6236H1336.04M1231.01 14.3985H1268.13M1231.01 14.3985L1222.73 11.5347M1231.01 14.3985H1193.9M1231.01 14.3985L1239.59 17.3642M1268.13 14.3985L1259.21 11.5347M1268.13 14.3985L1277.37 17.3642M1268.13 14.3985H1305.25M1222.73 11.5347H1259.21M1222.73 11.5347L1214.72 8.76782M1222.73 11.5347H1186.25M1259.21 11.5347H1295.69M1259.21 11.5347L1250.58 8.76782M1482.01 41.4968L1467.41 37.6375M1482.01 41.4968H1438.86M1482.01 41.4968L1497.22 45.5161M1482.01 41.4968H1501.59M1467.41 37.6375H1425.12M1467.41 37.6375L1453.38 33.9288M1467.41 37.6375H1501.59M1426.89 26.9295H1466.8M1426.89 26.9295L1414.38 23.6236M1426.89 26.9295H1386.99M1426.89 26.9295L1439.88 30.362M1466.8 26.9295L1453.55 23.6236M1466.8 26.9295L1480.55 30.362M1466.8 26.9295H1501.59M1414.38 23.6236H1453.55M1414.38 23.6236H1375.21M1414.38 23.6236L1402.33 20.4373M1453.55 23.6236L1440.79 20.4373M1453.55 23.6236H1492.72M1379.48 14.3985H1416.6M1379.48 14.3985L1368.64 11.5347M1379.48 14.3985H1342.36M1379.48 14.3985L1390.7 17.3642M1416.6 14.3985L1405.12 11.5347M1416.6 14.3985L1428.48 17.3642M1416.6 14.3985H1453.71M1368.64 11.5347H1405.12M1368.64 11.5347L1358.17 8.76782M1368.64 11.5347H1332.16M1405.12 11.5347H1441.6M1405.12 11.5347L1394.04 8.76782M1428.48 17.3642L1440.79 20.4373M1428.48 17.3642H1466.25M1428.48 17.3642H1390.7M1453.71 14.3985L1441.6 11.5347M1453.71 14.3985L1466.25 17.3642M1453.71 14.3985H1490.83M1441.6 11.5347H1478.08M1441.6 11.5347L1429.9 8.76782M1394.04 8.76782H1358.17M1394.04 8.76782H1429.9M1394.04 8.76782L1383.32 6.09256M1466.25 17.3642L1479.25 20.4373M1466.25 17.3642H1501.59M1490.83 14.3985L1478.08 11.5347M1490.83 14.3985L1501.59 16.817M1490.83 14.3985H1501.59M1478.08 11.5347L1465.76 8.76782M1478.08 11.5347H1501.59M1429.9 8.76782H1465.76M1429.9 8.76782L1418.59 6.09256M1465.76 8.76782L1453.85 6.09256M1465.76 8.76782H1501.59M1440.79 20.4373H1479.25M1440.79 20.4373H1402.33M1492.72 23.6236L1479.25 20.4373M1492.72 23.6236L1501.59 25.7209M1492.72 23.6236H1501.59M1479.25 20.4373H1501.59M1402.33 20.4373H1363.87M1402.33 20.4373L1390.7 17.3642M1390.7 17.3642H1352.92M1480.55 30.362L1494.84 33.9288M1480.55 30.362H1439.88M1480.55 30.362H1501.59M1501.72 26.9295H1501.59M1494.84 33.9288H1453.38M1494.84 33.9288L1501.59 35.6145M1494.84 33.9288H1501.59M1453.38 33.9288H1411.91M1453.38 33.9288L1439.88 30.362M1439.88 30.362H1399.21M1277.37 17.3642L1286.95 20.4373M1277.37 17.3642H1315.15M1277.37 17.3642H1239.59M1305.25 14.3985L1295.69 11.5347M1305.25 14.3985L1315.15 17.3642M1305.25 14.3985H1342.36M1295.69 11.5347H1332.16M1295.69 11.5347L1286.45 8.76782M1250.58 8.76782H1286.45M1250.58 8.76782L1242.25 6.09256M1250.58 8.76782H1214.72M1315.15 17.3642L1325.41 20.4373M1315.15 17.3642H1352.92M1342.36 14.3985L1332.16 11.5347M1342.36 14.3985L1352.92 17.3642M1332.16 11.5347L1322.31 8.76782M1286.45 8.76782H1322.31M1286.45 8.76782L1277.52 6.09256M1352.92 17.3642L1363.87 20.4373M1358.17 8.76782H1322.31M1358.17 8.76782L1348.05 6.09256M1322.31 8.76782L1312.78 6.09256M1286.95 20.4373H1325.41M1286.95 20.4373H1248.49M1336.04 23.6236L1325.41 20.4373M1336.04 23.6236L1347.08 26.9295M1336.04 23.6236H1375.21M1325.41 20.4373H1363.87M1248.49 20.4373H1210.03M1248.49 20.4373L1239.59 17.3642M1363.87 20.4373L1375.21 23.6236M1239.59 17.3642H1201.82M1347.08 26.9295L1358.54 30.362M1347.08 26.9295H1386.99M1375.21 23.6236L1386.99 26.9295M1386.99 26.9295L1399.21 30.362M1317.87 30.362L1328.99 33.9288M1317.87 30.362H1358.54M1317.87 30.362H1277.2M1358.54 30.362L1370.45 33.9288M1358.54 30.362H1399.21M1399.21 30.362L1411.91 33.9288M1328.99 33.9288H1370.45M1328.99 33.9288H1287.52M1382.83 37.6375L1370.45 33.9288M1382.83 37.6375L1395.72 41.4968M1382.83 37.6375H1425.12M1370.45 33.9288H1411.91M1287.52 33.9288H1246.06M1287.52 33.9288L1277.2 30.362M1411.91 33.9288L1425.12 37.6375M1277.2 30.362H1236.53M1395.72 41.4968L1409.14 45.5161M1395.72 41.4968H1438.86M1425.12 37.6375L1438.86 41.4968M1438.86 41.4968L1453.18 45.5161M1365.09 45.5161L1378.15 49.7057M1365.09 45.5161H1409.14M1365.09 45.5161H1321.05M1409.14 45.5161L1423.12 49.7057M1409.14 45.5161H1453.18M1453.18 45.5161L1468.1 49.7057M1453.18 45.5161H1497.22M1497.22 45.5161H1501.59M1497.22 45.5161L1501.59 46.6717M1378.15 49.7057H1423.12M1378.15 49.7057H1333.17M1437.72 54.0765L1423.12 49.7057M1437.72 54.0765L1452.95 58.6404M1437.72 54.0765H1483.66M1423.12 49.7057H1468.1M1333.17 49.7057H1288.2M1333.17 49.7057L1321.05 45.5161M1468.1 49.7057L1483.66 54.0765M1468.1 49.7057H1501.59M1321.05 45.5161H1277.01M1452.95 58.6404L1468.88 63.4109M1452.95 58.6404H1499.92M1483.66 54.0765L1499.92 58.6404M1483.66 54.0765H1501.59M1501.83 49.7057H1501.59M1499.92 58.6404L1501.59 59.1113M1499.92 58.6404H1501.59M1420.85 63.4109L1436.41 68.4021M1420.85 63.4109H1468.88M1420.85 63.4109H1372.83M1468.88 63.4109L1485.54 68.4021M1468.88 63.4109H1501.59M1502 59.2252L1501.59 59.1113M1436.41 68.4021H1485.54M1436.41 68.4021H1387.27M1485.54 68.4021H1501.59M1485.54 68.4021L1501.59 73.2094M1387.27 68.4021H1338.14M1387.27 68.4021L1372.83 63.4109M1372.83 63.4109H1324.8M1487.71 84.8643H1434.9M1487.71 84.8643L1501.59 89.3214M1487.71 84.8643H1501.59M1501.98 79.1105H1501.59M1434.9 84.8643H1382.1M1434.9 84.8643L1452.4 90.911M1501.75 89.3705L1501.59 89.3214M1126.26 17.3642L1133.1 20.4373M1126.26 17.3642H1164.04M1126.26 17.3642H1088.49M1156.78 14.3985L1149.77 11.5347M1156.78 14.3985L1164.04 17.3642M1156.78 14.3985H1193.9M1149.77 11.5347H1186.25M1149.77 11.5347L1142.99 8.76782M1107.13 8.76782H1142.99M1107.13 8.76782L1104.87 7.75414L1101.18 6.09256M1107.13 8.76782H1071.27M1164.04 17.3642L1171.56 20.4373M1164.04 17.3642H1201.82M1193.9 14.3985L1186.25 11.5347M1193.9 14.3985L1201.82 17.3642M1186.25 11.5347L1178.86 8.76782M1142.99 8.76782H1178.86M1142.99 8.76782L1136.44 6.09256M1201.82 17.3642L1210.03 20.4373M1214.72 8.76782L1206.98 6.09256M1214.72 8.76782H1178.86M1178.86 8.76782L1177.95 8.42812L1176.15 7.75414L1171.71 6.09256M1133.1 20.4373H1171.56M1133.1 20.4373H1094.64M1179.37 23.6236L1171.56 20.4373M1179.37 23.6236L1187.46 26.9295M1179.37 23.6236H1218.54M1171.56 20.4373H1210.03M1094.64 20.4373H1056.18M1094.64 20.4373L1088.49 17.3642M1210.03 20.4373L1218.54 23.6236M1088.49 17.3642H1050.71M1187.46 26.9295L1195.86 30.362M1187.46 26.9295H1227.37M1218.54 23.6236L1219.62 24.0297L1227.37 26.9295M1227.37 26.9295L1236.53 30.362M1155.2 30.362L1156.17 30.8006L1163.13 33.9288M1155.2 30.362H1195.86M1155.2 30.362H1114.53M1195.86 30.362L1204.6 33.9288M1195.86 30.362H1236.53M1236.53 30.362L1246.06 33.9288M1163.13 33.9288H1204.6M1163.13 33.9288H1121.67M1213.68 37.6375L1204.6 33.9288M1213.68 37.6375L1223.13 41.4968M1213.68 37.6375H1255.97M1204.6 33.9288H1246.06M1121.67 33.9288H1080.21M1121.67 33.9288L1114.53 30.362M1246.06 33.9288L1255.97 37.6375M1114.53 30.362H1073.86M1223.13 41.4968L1232.97 45.5161M1223.13 41.4968H1266.27M1255.97 37.6375L1266.27 41.4968M1266.27 41.4968L1277.01 45.5161M1188.92 45.5161L1198.25 49.7057M1188.92 45.5161H1232.97M1188.92 45.5161H1144.88M1232.97 45.5161L1243.22 49.7057M1232.97 45.5161H1277.01M1277.01 45.5161L1288.2 49.7057M1198.25 49.7057H1243.22M1198.25 49.7057H1153.27M1253.93 54.0765L1243.22 49.7057M1253.93 54.0765L1265.1 58.6404M1253.93 54.0765H1299.87M1243.22 49.7057H1288.2M1153.27 49.7057H1108.3M1153.27 49.7057L1144.88 45.5161M1288.2 49.7057L1299.87 54.0765M1144.88 45.5161H1100.84M1265.1 58.6404L1276.78 63.4109M1265.1 58.6404H1312.06M1299.87 54.0765L1312.06 58.6404M1312.06 58.6404L1324.8 63.4109M1228.75 63.4109L1239.86 68.4021M1228.75 63.4109H1276.78M1228.75 63.4109H1180.73M1276.78 63.4109L1289 68.4021M1276.78 63.4109H1324.8M1324.8 63.4109L1338.14 68.4021M1239.86 68.4021H1289M1239.86 68.4021H1190.73M1301.8 73.6295L1289 68.4021M1301.8 73.6295L1315.22 79.1105M1301.8 73.6295H1352.1M1289 68.4021H1338.14M1190.73 68.4021H1141.59M1190.73 68.4021L1180.73 63.4109M1338.14 68.4021L1352.1 73.6295M1180.73 63.4109H1132.7M1315.22 79.1105L1329.3 84.8643M1315.22 79.1105H1366.74M1352.1 73.6295L1366.74 79.1105M1366.74 79.1105L1382.1 84.8643M1276.5 84.8643L1289.96 90.911M1276.5 84.8643H1329.3M1276.5 84.8643H1223.7M1329.3 84.8643L1344.11 90.911M1329.3 84.8643H1382.1M1382.1 84.8643L1398.25 90.911M1289.96 90.911H1344.11M1289.96 90.911H1235.82M1359.69 97.2742L1344.11 90.911M1359.69 97.2742L1376.1 103.979M1359.69 97.2742H1415.25M1344.11 90.911H1398.25M1235.82 90.911H1181.67M1235.82 90.911L1223.7 84.8643M1398.25 90.911L1415.25 97.2742M1398.25 90.911H1452.4M1223.7 84.8643H1170.9M1376.1 103.979L1393.43 111.055M1376.1 103.979H1433.16M1415.25 97.2742L1433.16 103.979M1452.4 90.911H1501.59M1433.16 103.979L1452.06 111.055M1334.8 111.055L1351.44 118.531M1334.8 111.055H1393.43M1334.8 111.055H1276.17M1393.43 111.055L1411.73 118.531M1393.43 111.055H1452.06M1452.06 111.055L1472.03 118.531M1452.06 111.055H1501.59M1351.44 118.531H1411.73M1351.44 118.531H1291.14M1431.11 126.445L1411.73 118.531M1431.11 126.445L1451.65 134.835M1431.11 126.445H1493.16M1411.73 118.531H1472.03M1291.14 118.531H1230.85M1291.14 118.531L1276.17 111.055M1472.03 118.531L1493.16 126.445M1472.03 118.531H1501.59M1276.17 111.055H1217.54M1451.65 134.835L1473.47 143.746M1451.65 134.835H1501.59M1493.16 126.445H1501.59M1493.16 126.445L1501.59 129.602M1407.56 143.746L1428.66 153.227M1407.56 143.746H1473.47M1407.56 143.746H1341.65M1473.47 143.746L1496.68 153.227M1473.47 143.746H1501.59M1428.66 153.227H1496.68M1428.66 153.227H1360.65M1496.68 153.227L1501.59 155.235M1496.68 153.227H1501.59M1360.65 153.227H1292.63M1360.65 153.227L1341.65 143.746M1341.65 143.746H1275.75M1500.94 185.7H1425.7M1500.94 185.7H1501.59M1500.94 185.7L1501.59 185.994M1425.7 185.7H1350.45M1425.7 185.7L1450.57 198.115M975.159 17.3642L976.681 18.5035L977.192 18.887L979.262 20.4373M975.159 17.3642H1012.94M975.159 17.3642H937.382M1008.31 14.3985L1004.95 12.2416L1003.85 11.5347M1008.31 14.3985L1012.35 16.9876L1012.94 17.3642M1008.31 14.3985H1045.43M1003.85 11.5347H1040.33M1003.85 11.5347L999.542 8.76782M963.679 8.76782H999.542M963.679 8.76782L962.325 7.75414L960.106 6.09256M963.679 8.76782H927.816M1012.94 17.3642L1014.12 18.1219L1017.72 20.4373M1012.94 17.3642H1050.71M1045.43 14.3985L1040.33 11.5347M1045.43 14.3985L1050.71 17.3642M1040.33 11.5347L1036.62 9.45067L1035.4 8.76782M999.542 8.76782H1035.4M999.542 8.76782L995.374 6.09256M1050.71 17.3642L1056.18 20.4373M1071.27 8.76782L1070.59 8.42812L1065.91 6.09256M1071.27 8.76782H1035.4M1035.4 8.76782L1033.6 7.75414L1030.64 6.09256M979.262 20.4373H1017.72M979.262 20.4373H940.802M1022.69 23.6236L1017.72 20.4373M1022.69 23.6236L1027.84 26.9295M1022.69 23.6236H1061.86M1017.72 20.4373H1056.18M940.802 20.4373H902.341M940.802 20.4373L937.382 17.3642M1056.18 20.4373L1061.86 23.6236M937.382 17.3642H899.606M1027.84 26.9295L1031.16 29.0598L1031.83 29.4915L1033.19 30.362M1027.84 26.9295H1067.74M1061.86 23.6236L1067.74 26.9295M1067.74 26.9295L1073.86 30.362M992.517 30.362L997.28 33.9288M992.517 30.362H1033.19M992.517 30.362H951.847M1033.19 30.362L1038.74 33.9288M1033.19 30.362H1073.86M1073.86 30.362L1080.21 33.9288M997.28 33.9288H1038.74M997.28 33.9288H955.817M1044.52 37.6375L1040.88 35.3024L1040.17 34.8421L1038.74 33.9288M1044.52 37.6375L1050.53 41.4968M1044.52 37.6375H1086.81M1038.74 33.9288H1080.21M955.817 33.9288H914.353M955.817 33.9288L951.847 30.362M1080.21 33.9288L1086.81 37.6375M951.847 30.362H911.178M1050.53 41.4968L1056.8 45.5161M1050.53 41.4968H1093.68M1086.81 37.6375L1093.68 41.4968M1093.68 41.4968L1100.84 45.5161M1012.75 45.5161L1015.52 47.5887L1016.22 48.1141L1018.35 49.7057M1012.75 45.5161H1056.8M1012.75 45.5161H968.712M1056.8 45.5161L1063.32 49.7057M1056.8 45.5161H1100.84M1100.84 45.5161L1108.3 49.7057M1018.35 49.7057H1063.32M1018.35 49.7057H973.375M1070.13 54.0765L1063.32 49.7057M1070.13 54.0765L1077.25 58.6404M1070.13 54.0765H1116.08M1063.32 49.7057H1108.3M973.375 49.7057H928.399M973.375 49.7057L972.19 48.6418L968.712 45.5161M1108.3 49.7057L1116.08 54.0765M968.712 45.5161H924.67M1077.25 58.6404L1084.68 63.4109M1077.25 58.6404H1124.21M1116.08 54.0765L1124.21 58.6404M1124.21 58.6404L1132.7 63.4109M1036.65 63.4109L1043.32 68.4021M1036.65 63.4109H1084.68M1036.65 63.4109H988.626M1084.68 63.4109L1092.45 68.4021M1084.68 63.4109H1132.7M1132.7 63.4109L1141.59 68.4021M1043.32 68.4021H1092.45M1043.32 68.4021H994.181M1100.6 73.6295L1092.45 68.4021M1100.6 73.6295L1109.14 79.1105M1100.6 73.6295H1150.9M1092.45 68.4021H1141.59M994.181 68.4021H945.045M994.181 68.4021L988.626 63.4109M1141.59 68.4021L1150.9 73.6295M988.626 63.4109H940.602M1109.14 79.1105L1118.1 84.8643M1109.14 79.1105H1160.66M1150.9 73.6295L1160.66 79.1105M1160.66 79.1105L1170.9 84.8643M1065.3 84.8643L1073.38 90.911M1065.3 84.8643H1118.1M1065.3 84.8643H1012.5M1118.1 84.8643L1127.52 90.911M1118.1 84.8643H1170.9M1170.9 84.8643L1181.67 90.911M1073.38 90.911H1127.52M1073.38 90.911H1019.23M1137.44 97.2742L1127.52 90.911M1137.44 97.2742L1147.88 103.979M1137.44 97.2742H1193M1127.52 90.911H1181.67M1019.23 90.911H965.085M1019.23 90.911L1012.5 84.8643M1181.67 90.911L1193 97.2742M1012.5 84.8643H959.701M1147.88 103.979L1158.91 111.055M1147.88 103.979H1204.94M1193 97.2742L1204.94 103.979M1204.94 103.979L1217.54 111.055M1100.28 111.055L1110.26 118.531M1100.28 111.055H1158.91M1100.28 111.055H1041.65M1158.91 111.055L1170.56 118.531M1158.91 111.055H1217.54M1217.54 111.055L1230.85 118.531M1110.26 118.531H1170.56M1110.26 118.531H1049.97M1182.89 126.445L1170.56 118.531M1182.89 126.445L1195.96 134.835M1182.89 126.445H1244.94M1170.56 118.531H1230.85M1049.97 118.531H989.675M1049.97 118.531L1041.65 111.055M1230.85 118.531L1244.94 126.445M1041.65 111.055H983.019M1195.96 134.835L1209.84 143.746M1195.96 134.835H1259.88M1244.94 126.445L1259.88 134.835M1259.88 134.835L1275.75 143.746M1143.94 143.746L1156.6 153.227M1143.94 143.746H1209.84M1143.94 143.746H1078.03M1209.84 143.746L1224.61 153.227M1209.84 143.746H1275.75M1275.75 143.746L1292.63 153.227M1156.6 153.227H1224.61M1156.6 153.227H1088.58M1240.36 163.335L1224.61 153.227M1240.36 163.335L1257.19 174.135M1240.36 163.335H1310.63M1224.61 153.227H1292.63M1088.58 153.227H1020.56M1088.58 153.227L1078.03 143.746M1292.63 153.227L1310.63 163.335M1078.03 143.746H1012.12M1257.19 174.135L1275.21 185.7M1257.19 174.135H1329.86M1310.63 163.335L1329.86 174.135M1329.86 174.135L1350.45 185.7M1199.96 185.7L1216.54 198.115M1199.96 185.7H1275.21M1199.96 185.7H1124.72M1275.21 185.7L1294.55 198.115M1275.21 185.7H1350.45M1350.45 185.7L1372.56 198.115M1216.54 198.115H1294.55M1216.54 198.115H1138.54M1315.37 211.476L1294.55 198.115M1315.37 211.476L1337.84 225.897M1315.37 211.476H1396.35M1294.55 198.115H1372.56M1138.54 198.115H1060.53M1138.54 198.115L1124.72 185.7M1372.56 198.115L1396.35 211.476M1372.56 198.115H1450.57M1124.72 185.7H1049.48M1337.84 225.897L1362.16 241.507M1337.84 225.897H1422.03M1396.35 211.476L1422.03 225.897M1450.57 198.115H1501.59M1422.03 225.897L1449.82 241.507M1422.03 225.897H1501.59M1274.49 241.507L1297.13 258.462M1274.49 241.507H1362.16M1274.49 241.507H1186.83M1362.16 241.507L1388.57 258.462M1362.16 241.507H1449.82M1449.82 241.507L1480.01 258.462M1449.82 241.507H1501.59M1297.13 258.462H1388.57M1297.13 258.462H1205.7M1417.37 276.942L1388.57 258.462M1417.37 276.942L1448.87 297.162M1417.37 276.942H1501.59M1388.57 258.462H1480.01M1205.7 258.462H1114.26M1205.7 258.462L1186.83 241.507M1480.01 258.462H1501.59M1480.01 258.462L1501.59 270.583M1186.83 241.507H1099.16M1448.87 297.162L1483.49 319.382M1448.87 297.162H1501.59M1378.49 319.382L1411.25 343.913M1378.49 319.382H1483.49M1378.49 319.382H1273.49M1483.49 319.382L1501.59 331.003M1483.49 319.382H1501.59M1411.25 343.913H1300.79M1411.25 343.913L1501.59 343.912M1300.79 343.913H1190.33M1300.79 343.913L1273.49 319.382M1273.49 319.382H1168.49M824.053 17.3642L824.221 17.7423L824.39 18.1219L824.56 18.5035L824.73 18.887L825.247 20.0469L825.421 20.4373M824.053 17.3642H861.83M824.053 17.3642H786.276M859.849 14.3985L858.409 12.2416L857.937 11.5347M859.849 14.3985L861.079 16.2398L861.83 17.3642M859.849 14.3985H896.965M857.937 11.5347H894.416M857.937 11.5347L856.545 9.45067L856.089 8.76782M820.226 8.76782L820.075 8.42812L819.478 7.08507L819.035 6.09256M820.226 8.76782H856.089M820.226 8.76782H784.363M861.83 17.3642L862.082 17.7423L862.336 18.1219L862.59 18.5035L862.846 18.887L863.881 20.4373M861.83 17.3642H899.606M896.965 14.3985L895.045 12.2416L894.416 11.5347M896.965 14.3985L899.606 17.3642M894.416 11.5347L893.173 10.1394L892.255 9.10851L891.953 8.76782M856.089 8.76782L855.863 8.42812L855.413 7.75414L854.966 7.08507L854.744 6.75276L854.303 6.09256M856.089 8.76782H891.953M899.606 17.3642L901.649 19.6584L902.341 20.4373M927.816 8.76782L925.574 6.75276L924.839 6.09256M927.816 8.76782H891.953M891.953 8.76782L889.864 6.42192L889.57 6.09256M825.421 20.4373H863.881M825.421 20.4373H786.96M866.009 23.6236L863.881 20.4373M866.009 23.6236L868.216 26.9295M866.009 23.6236H905.178M863.881 20.4373H902.341M786.96 20.4373H748.5M786.96 20.4373L786.276 17.3642M902.341 20.4373L905.178 23.6236M786.276 17.3642H748.5M868.216 26.9295L868.782 27.7753L869.639 29.0598L870.508 30.362M868.216 26.9295H908.122M905.178 23.6236L905.541 24.0297L908.122 26.9295M908.122 26.9295L908.497 27.3514L908.875 27.7753L909.254 28.2017L911.178 30.362M829.839 30.362L831.427 33.9288M829.839 30.362H870.508M829.839 30.362H789.169M870.508 30.362L872.89 33.9288M870.508 30.362H911.178M911.178 30.362L913.548 33.024L913.95 33.4754L914.353 33.9288M831.427 33.9288H872.89M831.427 33.9288H789.963M875.367 37.6375L875.683 38.1116L876.001 38.5877L876.32 39.0667L877.944 41.4968M875.367 37.6375L874.116 35.7647L873.807 35.3024L873.5 34.8421L872.89 33.9288M875.367 37.6375H917.655M872.89 33.9288H914.353M789.963 33.9288H748.5M789.963 33.9288L789.169 30.362M914.353 33.9288L917.655 37.6375M789.169 30.362H748.5M877.944 41.4968L880.286 45.0046L880.627 45.5161M877.944 41.4968H921.091M917.655 37.6375L918.502 38.5877L921.091 41.4968M921.091 41.4968L922.416 42.9846L924.67 45.5161M836.585 45.5161L837.508 47.5887L837.741 48.1141L838.45 49.7057M836.585 45.5161H880.627M836.585 45.5161H792.543M880.627 45.5161L883.425 49.7057M880.627 45.5161H924.67M924.67 45.5161L928.399 49.7057M838.45 49.7057H883.425M838.45 49.7057H793.475M886.343 54.0765L883.425 49.7057M886.343 54.0765L889.391 58.6404M886.343 54.0765H932.291M883.425 49.7057H928.399M793.475 49.7057H748.5M793.475 49.7057L793.238 48.6418L792.772 46.547L792.543 45.5161M928.399 49.7057L932.291 54.0765M792.543 45.5161H748.5M889.391 58.6404L891.766 62.1984L892.576 63.4109M889.391 58.6404H936.355M932.291 54.0765L936.355 58.6404M936.355 58.6404L938.454 60.9991L940.602 63.4109M844.551 63.4109L846.772 68.4021M844.551 63.4109H892.576M844.551 63.4109H796.525M892.576 63.4109L895.909 68.4021M892.576 63.4109H940.602M940.602 63.4109L945.045 68.4021M846.772 68.4021H895.909M846.772 68.4021H797.636M899.4 73.6295L898.511 72.2998L895.909 68.4021M899.4 73.6295L903.059 79.1105M899.4 73.6295H949.699M895.909 68.4021H945.045M797.636 68.4021H748.5M797.636 68.4021L796.525 63.4109M945.045 68.4021L949.699 73.6295M796.525 63.4109H748.5M903.059 79.1105L906.901 84.8643M903.059 79.1105H954.579M949.699 73.6295L954.579 79.1105M954.579 79.1105L959.701 84.8643M854.101 84.8643L856.793 90.911M854.101 84.8643H906.901M854.101 84.8643H801.301M906.901 84.8643L910.939 90.911M906.901 84.8643H959.701M959.701 84.8643L965.085 90.911M856.793 90.911H910.939M856.793 90.911H802.646M915.188 97.2742L910.939 90.911M915.188 97.2742L919.665 103.979M915.188 97.2742H970.75M910.939 90.911H965.085M802.646 90.911H748.5M802.646 90.911L801.464 85.6037L801.301 84.8643M965.085 90.911L970.75 97.2742M801.301 84.8643H748.5M919.665 103.979L924.389 111.055M919.665 103.979H976.72M970.75 97.2742L975.197 102.27L976.72 103.979M976.72 103.979L983.019 111.055M865.759 111.055L869.088 118.531M865.759 111.055H924.389M865.759 111.055H807.13M924.389 111.055L929.382 118.531M924.389 111.055H983.019M983.019 111.055L989.675 118.531M869.088 118.531H929.382M869.088 118.531H808.794M934.666 126.445L929.382 118.531M934.666 126.445L940.268 134.835M934.666 126.445H996.721M929.382 118.531H989.675M808.794 118.531H748.5M808.794 118.531L807.13 111.055M989.675 118.531L996.721 126.445M807.13 111.055H748.5M940.268 134.835L946.218 143.746M940.268 134.835H1004.19M996.721 126.445L1004.19 134.835M1004.19 134.835L1012.12 143.746M880.312 143.746L884.532 153.227M880.312 143.746H946.218M880.312 143.746H814.406M946.218 143.746L952.549 153.227M946.218 143.746H1012.12M1012.12 143.746L1020.56 153.227M884.532 153.227H952.549M884.532 153.227H816.516M959.298 163.335L952.549 153.227M959.298 163.335L966.51 174.135M959.298 163.335H1029.56M952.549 153.227H1020.56M816.516 153.227H748.5M816.516 153.227L814.406 143.746M1020.56 153.227L1029.56 163.335M814.406 143.746H748.5M966.51 174.135L974.232 185.7M966.51 174.135H1039.18M1029.56 163.335L1039.18 174.135M1039.18 174.135L1049.48 185.7M898.988 185.7L904.515 198.115M898.988 185.7H974.232M898.988 185.7H823.744M974.232 185.7L982.522 198.115M974.232 185.7H1049.48M1049.48 185.7L1060.53 198.115M904.515 198.115H982.522M904.515 198.115H826.507M991.443 211.476L982.522 198.115M991.443 211.476L1001.07 225.897M991.443 211.476H1072.42M982.522 198.115H1060.53M826.507 198.115H748.5M826.507 198.115L823.744 185.7M1060.53 198.115L1072.42 211.476M823.744 185.7H748.5M1001.07 225.897L1011.5 241.507M1001.07 225.897H1085.26M1072.42 211.476L1085.26 225.897M1085.26 225.897L1099.16 241.507M923.831 241.507L931.378 258.462M923.831 241.507H1011.5M923.831 241.507H836.166M1011.5 241.507L1022.82 258.462M1011.5 241.507H1099.16M1099.16 241.507L1114.26 258.462M931.378 258.462H1022.82M931.378 258.462H839.939M1035.16 276.942L1022.82 258.462M1035.16 276.942L1048.66 297.162M1035.16 276.942H1130.71M1022.82 258.462H1114.26M839.939 258.462H748.5M839.939 258.462L836.166 241.507M1114.26 258.462L1130.71 276.942M836.166 241.507H748.5M1048.66 297.162L1063.5 319.382M1048.66 297.162H1148.71M1130.71 276.942L1148.71 297.162M1148.71 297.162L1168.49 319.382M958.496 319.382L969.416 343.913M958.496 319.382H1063.5M958.496 319.382H853.499M1063.5 319.382L1079.87 343.913M1063.5 319.382H1168.49M1168.49 319.382L1190.33 343.913M1079.87 343.913H969.416M1079.87 343.913H1190.33M969.416 343.913H858.959M858.959 343.913H748.5M858.959 343.913L853.499 319.382M853.499 319.382H748.5M672.947 17.3642L672.779 17.7423L672.61 18.1219L672.44 18.5035L672.27 18.887L671.926 19.6584L671.753 20.0469L671.579 20.4373M672.947 17.3642H710.724M672.947 17.3642H635.17M711.383 14.3985L712.021 11.5347M711.383 14.3985L710.724 17.3642M711.383 14.3985H748.5M712.021 11.5347L712.099 11.1836L712.177 10.8341L712.254 10.486L712.637 8.76782M712.021 11.5347H748.5M676.774 8.76782L676.925 8.42812L677.522 7.08507L677.965 6.09256M676.774 8.76782H712.637M676.774 8.76782H640.911M710.724 17.3642L710.639 17.7423L710.555 18.1219L710.47 18.5035L710.04 20.4373M710.724 17.3642H748.5M748.5 14.3985V11.5347M748.5 14.3985V17.3642M748.5 11.5347V8.76782M712.637 8.76782H748.5M712.637 8.76782L712.862 7.75414L712.937 7.41887L713.232 6.09256M748.5 17.3642V20.4373M784.363 8.76782L784.138 7.75414L784.063 7.41887L783.989 7.08507L783.914 6.75276L783.841 6.42192L783.768 6.09256M784.363 8.76782H748.5M748.5 8.76782V6.09256M671.579 20.4373H710.04M671.579 20.4373H633.119M709.33 23.6236L709.239 24.0297L709.149 24.4384L708.595 26.9295M709.33 23.6236L710.04 20.4373M709.33 23.6236H748.5M710.04 20.4373H748.5M633.119 20.4373H594.659M633.119 20.4373L633.638 19.6584L633.897 19.272L634.154 18.887L634.41 18.5035L634.664 18.1219L634.918 17.7423L635.17 17.3642M748.5 20.4373V23.6236M635.17 17.3642H597.394M708.595 26.9295L707.831 30.362M708.595 26.9295H748.5M748.5 23.6236V26.9295M748.5 26.9295V30.362M667.161 30.362L665.573 33.9288M667.161 30.362H707.831M667.161 30.362H626.492M707.831 30.362L707.037 33.9288M707.831 30.362H748.5M748.5 30.362V33.9288M665.573 33.9288H707.037M665.573 33.9288H624.11M706.211 37.6375L707.037 33.9288M706.211 37.6375L705.352 41.4968M706.211 37.6375H748.5M707.037 33.9288H748.5M624.11 33.9288H582.647M624.11 33.9288L626.492 30.362M748.5 33.9288V37.6375M626.492 30.362H585.822M705.352 41.4968L705.021 42.9846L704.685 44.4955L704.457 45.5161M705.352 41.4968H748.5M748.5 37.6375V41.4968M748.5 41.4968V45.5161M660.415 45.5161L659.492 47.5887L659.259 48.1141L658.55 49.7057M660.415 45.5161H704.457M660.415 45.5161H616.373M704.457 45.5161L704.228 46.547L703.762 48.6418L703.525 49.7057M704.457 45.5161H748.5M748.5 45.5161V49.7057M658.55 49.7057H703.525M658.55 49.7057H613.575M702.553 54.0765L702.676 53.5197L703.525 49.7057M702.553 54.0765L701.537 58.6404M702.553 54.0765H748.5M703.525 49.7057H748.5M613.575 49.7057H568.601M613.575 49.7057L616.373 45.5161M748.5 49.7057V54.0765M616.373 45.5161H572.33M701.537 58.6404L700.475 63.4109M701.537 58.6404H748.5M748.5 54.0765V58.6404M748.5 58.6404V63.4109M652.449 63.4109L650.227 68.4021M652.449 63.4109H700.475M652.449 63.4109H604.424M700.475 63.4109L699.364 68.4021M700.475 63.4109H748.5M748.5 63.4109V68.4021M650.227 68.4021H699.364M650.227 68.4021H601.091M698.2 73.6295L699.364 68.4021M698.2 73.6295L696.981 79.1105M698.2 73.6295H748.5M699.364 68.4021H748.5M601.091 68.4021H551.955M601.091 68.4021L604.424 63.4109M748.5 68.4021V73.6295M604.424 63.4109H556.398M696.981 79.1105L695.699 84.8643M696.981 79.1105H748.5M748.5 73.6295V79.1105M748.5 79.1105V84.8643M642.899 84.8643L640.207 90.911M642.899 84.8643H695.699M642.899 84.8643H590.099M695.699 84.8643L694.354 90.911M695.699 84.8643H748.5M748.5 84.8643V90.911M640.207 90.911H694.354M640.207 90.911H586.061M692.937 97.2742L694.354 90.911M692.937 97.2742L691.445 103.979M692.937 97.2742H748.5M694.354 90.911H748.5M586.061 90.911H531.915M586.061 90.911L590.099 84.8643M748.5 90.911V97.2742M590.099 84.8643H537.299M691.445 103.979L689.87 111.055M691.445 103.979H748.5M748.5 97.2742V103.979M748.5 103.979V111.055M631.241 111.055L627.912 118.531M631.241 111.055H689.87M631.241 111.055H572.611M689.87 111.055L688.206 118.531M689.87 111.055H748.5M748.5 111.055V118.531M627.912 118.531H688.206M627.912 118.531H567.618M686.445 126.445L688.206 118.531M686.445 126.445L684.577 134.835M686.445 126.445H748.5M688.206 118.531H748.5M567.618 118.531H507.325M567.618 118.531L572.611 111.055M748.5 118.531V126.445M572.611 111.055H513.981M684.577 134.835L682.594 143.746M684.577 134.835H748.5M748.5 126.445V134.835M748.5 134.835V143.746M616.688 143.746L612.468 153.227M616.688 143.746H682.594M616.688 143.746H550.782M682.594 143.746L680.484 153.227M682.594 143.746H748.5M748.5 143.746V153.227M612.468 153.227H680.484M612.468 153.227H544.451M678.234 163.335L680.484 153.227M678.234 163.335L675.83 174.135M678.234 163.335H748.5M680.484 153.227H748.5M544.451 153.227H476.435M544.451 153.227L550.782 143.746M748.5 153.227V163.335M550.782 143.746H484.876M675.83 174.135L673.256 185.7M675.83 174.135H748.5M748.5 163.335V174.135M748.5 174.135V185.7M598.012 185.7L592.486 198.115M598.012 185.7H673.256M598.012 185.7H522.768M673.256 185.7L670.493 198.115M673.256 185.7H748.5M748.5 185.7V198.115M592.486 198.115H670.493M592.486 198.115H514.478M667.519 211.476L670.493 198.115M667.519 211.476L664.31 225.897M667.519 211.476H748.5M670.493 198.115H748.5M514.478 198.115H436.471M514.478 198.115L522.768 185.7M748.5 198.115V211.476M522.768 185.7H447.523M664.31 225.897L660.834 241.507M664.31 225.897H748.5M748.5 211.476V225.897M748.5 225.897V241.507M573.169 241.507L565.622 258.462M573.169 241.507H660.834M573.169 241.507H485.504M660.834 241.507L657.061 258.462M660.834 241.507H748.5M748.5 241.507V258.462M565.622 258.462H657.061M565.622 258.462H474.183M652.948 276.942L657.061 258.462M652.948 276.942L648.447 297.162M652.948 276.942H748.5M657.061 258.462H748.5M474.183 258.462H382.744M474.183 258.462L485.504 241.507M748.5 258.462V276.942M485.504 241.507H397.839M648.447 297.162L643.501 319.382M648.447 297.162H748.5M748.5 276.942V297.162M748.5 297.162V319.382M538.504 319.382L527.584 343.913M538.504 319.382H643.501M538.504 319.382H433.505M643.501 319.382L638.041 343.913M643.501 319.382H748.5M748.5 319.382V343.913M638.041 343.913H527.584M638.041 343.913H748.5M527.584 343.913H417.125M417.125 343.913H306.667M417.125 343.913L433.505 319.382M433.505 319.382H328.506M521.841 17.3642L519.808 18.887L517.738 20.4373M521.841 17.3642H559.618M521.841 17.3642H484.065M562.918 14.3985L566.105 11.5347M562.918 14.3985L559.618 17.3642M562.918 14.3985H600.035M566.105 11.5347H602.584M566.105 11.5347L568.424 9.45067L569.184 8.76782M533.321 8.76782H569.184M533.321 8.76782L534.675 7.75414L536.894 6.09256M533.321 8.76782H497.458M559.618 17.3642L556.198 20.4373M559.618 17.3642H597.394M600.035 14.3985L602.584 11.5347M600.035 14.3985L597.394 17.3642M602.584 11.5347L603.827 10.1394L604.745 9.10851L605.047 8.76782M569.184 8.76782H605.047M569.184 8.76782L571.426 6.75276L572.161 6.09256M597.394 17.3642L595.351 19.6584L594.659 20.4373M640.911 8.76782L641.137 8.42812L641.587 7.75414L642.256 6.75276L642.697 6.09256M640.911 8.76782H605.047M605.047 8.76782L605.349 8.42812L605.95 7.75414L607.429 6.09256M517.738 20.4373H556.198M517.738 20.4373H479.277M552.652 23.6236L553.103 23.2189L553.551 22.8157L555.323 21.2225L556.198 20.4373M552.652 23.6236L549.905 26.0911L548.972 26.9295M552.652 23.6236H591.822M556.198 20.4373H594.659M479.277 20.4373H440.816M479.277 20.4373L482.884 18.1219L484.065 17.3642M594.659 20.4373L591.822 23.6236M484.065 17.3642H446.288M548.972 26.9295L548.503 27.3514L548.031 27.7753L546.602 29.0598L546.121 29.4915L545.153 30.362M548.972 26.9295H588.878M591.822 23.6236L591.459 24.0297L588.878 26.9295M588.878 26.9295L588.503 27.3514L588.125 27.7753L587.746 28.2017L585.822 30.362M504.483 30.362L499.72 33.9288M504.483 30.362H545.153M504.483 30.362H463.814M545.153 30.362L541.183 33.9288M545.153 30.362H585.822M585.822 30.362L582.647 33.9288M499.72 33.9288H541.183M499.72 33.9288H458.257M537.056 37.6375L541.183 33.9288M537.056 37.6375L532.761 41.4968M537.056 37.6375H579.345M541.183 33.9288H582.647M458.257 33.9288H416.793M458.257 33.9288L463.814 30.362M582.647 33.9288L579.345 37.6375M463.814 30.362H423.144M532.761 41.4968L528.288 45.5161M532.761 41.4968H575.909M579.345 37.6375L578.498 38.5877L575.909 41.4968M575.909 41.4968L574.584 42.9846L573.238 44.4955L572.33 45.5161M484.245 45.5161L481.477 47.5887L478.651 49.7057M484.245 45.5161H528.288M484.245 45.5161H440.203M528.288 45.5161L523.625 49.7057M528.288 45.5161H572.33M572.33 45.5161L568.601 49.7057M478.651 49.7057H523.625M478.651 49.7057H433.676M518.762 54.0765L523.625 49.7057M518.762 54.0765L513.682 58.6404M518.762 54.0765H564.709M523.625 49.7057H568.601M433.676 49.7057H388.7M433.676 49.7057L440.203 45.5161M568.601 49.7057L564.709 54.0765M440.203 45.5161H396.161M513.682 58.6404L512.377 59.8131L508.374 63.4109M513.682 58.6404H560.645M564.709 54.0765L560.645 58.6404M560.645 58.6404L560.125 59.2252L558.546 60.9991L556.398 63.4109M460.348 63.4109L453.682 68.4021M460.348 63.4109H508.374M460.348 63.4109H412.323M508.374 63.4109L502.819 68.4021M508.374 63.4109H556.398M556.398 63.4109L551.955 68.4021M453.682 68.4021H502.819M453.682 68.4021H404.546M497.001 73.6295L500.669 70.3339L502.819 68.4021M497.001 73.6295L490.901 79.1105M497.001 73.6295H547.301M502.819 68.4021H551.955M404.546 68.4021H355.41M404.546 68.4021L412.323 63.4109M551.955 68.4021L547.301 73.6295M412.323 63.4109H364.297M490.901 79.1105L484.498 84.8643M490.901 79.1105H542.421M547.301 73.6295L542.421 79.1105M542.421 79.1105L537.299 84.8643M431.698 84.8643L423.622 90.911M431.698 84.8643H484.498M431.698 84.8643H378.898M484.498 84.8643L477.769 90.911M484.498 84.8643H537.299M537.299 84.8643L531.915 90.911M423.622 90.911H477.769M423.622 90.911H369.476M470.687 97.2742L477.769 90.911M470.687 97.2742L463.225 103.979M470.687 97.2742H526.25M477.769 90.911H531.915M369.476 90.911H315.33M369.476 90.911L378.898 84.8643M531.915 90.911L526.25 97.2742M378.898 84.8643H326.097M463.225 103.979L455.352 111.055M463.225 103.979H520.28M526.25 97.2742L520.28 103.979M520.28 103.979L513.981 111.055M396.722 111.055L386.737 118.531M396.722 111.055H455.352M396.722 111.055H338.092M455.352 111.055L447.031 118.531M455.352 111.055H513.981M513.981 111.055L507.325 118.531M386.737 118.531H447.031M386.737 118.531H326.443M438.224 126.445L447.031 118.531M438.224 126.445L428.887 134.835M438.224 126.445H500.279M447.031 118.531H507.325M326.443 118.531H266.149M326.443 118.531L338.092 111.055M507.325 118.531L500.279 126.445M338.092 111.055H279.463M428.887 134.835L418.97 143.746M428.887 134.835H492.81M500.279 126.445L492.81 134.835M492.81 134.835L484.876 143.746M353.064 143.746L340.403 153.227M353.064 143.746H418.97M353.064 143.746H287.158M418.97 143.746L408.419 153.227M418.97 143.746H484.876M484.876 143.746L476.435 153.227M340.403 153.227H408.419M340.403 153.227H272.387M397.17 163.335L408.419 153.227M397.17 163.335L385.15 174.135M397.17 163.335H467.436M408.419 153.227H476.435M272.387 153.227H204.37M272.387 153.227L287.158 143.746M476.435 153.227L467.436 163.335M287.158 143.746H221.252M385.15 174.135L372.28 185.7M385.15 174.135H457.82M467.436 163.335L457.82 174.135M457.82 174.135L447.523 185.7M297.036 185.7L280.457 198.115M297.036 185.7H372.28M297.036 185.7H221.791M372.28 185.7L358.464 198.115M372.28 185.7H447.523M447.523 185.7L436.471 198.115M280.457 198.115H358.464M280.457 198.115H202.449M343.594 211.476L358.464 198.115M343.594 211.476L327.546 225.897M343.594 211.476H424.575M358.464 198.115H436.471M202.449 198.115H124.442M202.449 198.115L221.791 185.7M436.471 198.115L424.575 211.476M221.791 185.7H146.547M327.546 225.897L310.173 241.507M327.546 225.897H411.737M424.575 211.476L411.737 225.897M411.737 225.897L397.839 241.507M222.508 241.507L199.866 258.462M222.508 241.507H310.173M222.508 241.507H134.843M310.173 241.507L291.305 258.462M310.173 241.507H397.839M397.839 241.507L382.744 258.462M199.866 258.462H291.305M199.866 258.462H108.427M270.739 276.942L291.305 258.462M270.739 276.942L248.236 297.162M270.739 276.942H366.291M291.305 258.462H382.744M108.427 258.462H16.988M108.427 258.462L134.843 241.507M382.744 258.462L366.291 276.942M134.843 241.507H47.1777M248.236 297.162L223.508 319.382M248.236 297.162H348.289M366.291 276.942L348.289 297.162M348.289 297.162L328.506 319.382M118.51 319.382L85.7502 343.913M118.51 319.382H223.508M118.51 319.382H13.5112M223.508 319.382L196.209 343.913M223.508 319.382H328.506M328.506 319.382L306.667 343.913M196.209 343.913H85.7502M196.209 343.913H306.667M85.7502 343.913L-4.59442 343.912M13.5112 319.382L-4.59442 331.003M13.5112 319.382H-4.59442M370.735 17.3642L363.895 20.4373M370.735 17.3642H408.512M370.735 17.3642H332.959M414.452 14.3985L420.189 11.5347M414.452 14.3985L408.512 17.3642M414.452 14.3985H451.569M420.189 11.5347H456.668M420.189 11.5347L425.732 8.76782M389.869 8.76782H425.732M389.869 8.76782L392.125 7.75414L395.823 6.09256M389.869 8.76782H354.006M408.512 17.3642L402.356 20.4373M408.512 17.3642H446.288M451.569 14.3985L456.668 11.5347M451.569 14.3985L446.288 17.3642M456.668 11.5347L460.379 9.45067L461.595 8.76782M425.732 8.76782L426.412 8.42812L431.091 6.09256M425.732 8.76782H461.595M446.288 17.3642L440.816 20.4373M497.458 8.76782L501.626 6.09256M497.458 8.76782H461.595M461.595 8.76782L463.4 7.75414L466.359 6.09256M363.895 20.4373H402.356M363.895 20.4373H325.435M395.973 23.6236L402.356 20.4373M395.973 23.6236L389.351 26.9295M395.973 23.6236H435.143M402.356 20.4373H440.816M325.435 20.4373H286.975M325.435 20.4373L332.959 17.3642M440.816 20.4373L435.143 23.6236M332.959 17.3642H295.183M389.351 26.9295L387.656 27.7753L382.474 30.362M389.351 26.9295H429.256M435.143 23.6236L429.256 26.9295M429.256 26.9295L423.144 30.362M341.805 30.362L340.83 30.8006L333.867 33.9288M341.805 30.362H382.474M341.805 30.362H301.135M382.474 30.362L375.33 33.9288M382.474 30.362H423.144M423.144 30.362L422.364 30.8006L416.793 33.9288M333.867 33.9288H375.33M333.867 33.9288H292.403M367.901 37.6375L375.33 33.9288M367.901 37.6375L360.17 41.4968M367.901 37.6375H410.19M375.33 33.9288H416.793M292.403 33.9288H250.94M292.403 33.9288L301.135 30.362M416.793 33.9288L410.19 37.6375M301.135 30.362H260.466M360.17 41.4968L352.118 45.5161M360.17 41.4968H403.318M410.19 37.6375L403.318 41.4968M403.318 41.4968L396.161 45.5161M308.076 45.5161L298.751 49.7057M308.076 45.5161H352.118M308.076 45.5161H264.034M352.118 45.5161L343.726 49.7057M352.118 45.5161H396.161M396.161 45.5161L388.7 49.7057M298.751 49.7057H343.726M298.751 49.7057H253.776M334.97 54.0765L343.726 49.7057M334.97 54.0765L325.827 58.6404M334.97 54.0765H380.918M343.726 49.7057H388.7M253.776 49.7057H208.801M253.776 49.7057L264.034 45.5161M388.7 49.7057L380.918 54.0765M264.034 45.5161H219.991M325.827 58.6404L316.272 63.4109M325.827 58.6404H372.791M380.918 54.0765L372.791 58.6404M372.791 58.6404L364.297 63.4109M268.246 63.4109L257.137 68.4021M268.246 63.4109H316.272M268.246 63.4109H220.221M316.272 63.4109L306.274 68.4021M316.272 63.4109H364.297M364.297 63.4109L355.41 68.4021M257.137 68.4021H306.274M257.137 68.4021H208.001M295.802 73.6295L306.274 68.4021M295.802 73.6295L284.822 79.1105M295.802 73.6295H346.101M306.274 68.4021H355.41M208.001 68.4021H158.865M208.001 68.4021L220.221 63.4109M355.41 68.4021L346.101 73.6295M220.221 63.4109H172.195M284.822 79.1105L273.297 84.8643M284.822 79.1105H336.342M346.101 73.6295L336.342 79.1105M336.342 79.1105L326.097 84.8643M220.496 84.8643L207.038 90.911M220.496 84.8643H273.297M220.496 84.8643H167.696M273.297 84.8643L261.184 90.911M273.297 84.8643H326.097M326.097 84.8643L315.33 90.911M207.038 90.911H261.184M207.038 90.911H152.891M248.437 97.2742L261.184 90.911M248.437 97.2742L235.006 103.979M248.437 97.2742H303.999M261.184 90.911H315.33M152.891 90.911H98.745M152.891 90.911L167.696 84.8643M315.33 90.911L303.999 97.2742M167.696 84.8643H114.896M235.006 103.979L220.833 111.055M235.006 103.979H292.06M303.999 97.2742L292.06 103.979M292.06 103.979L279.463 111.055M162.203 111.055L145.562 118.531M162.203 111.055H220.833M162.203 111.055H103.573M220.833 111.055L205.855 118.531M220.833 111.055H279.463M279.463 111.055L266.149 118.531M145.562 118.531H205.855M145.562 118.531H85.2678M190.003 126.445L205.855 118.531M190.003 126.445L173.196 134.835M190.003 126.445H252.058M205.855 118.531H266.149M85.2678 118.531H24.9739M85.2678 118.531L103.573 111.055M266.149 118.531L252.058 126.445M103.573 111.055H44.9435M173.196 134.835L155.346 143.746M173.196 134.835H237.119M252.058 126.445L237.119 134.835M237.119 134.835L221.252 143.746M89.4404 143.746L68.3381 153.227M89.4404 143.746H155.346M89.4404 143.746H23.5344M155.346 143.746L136.354 153.227M155.346 143.746H221.252M221.252 143.746L204.37 153.227M68.3381 153.227H136.354M68.3381 153.227H0.321871M116.105 163.335L136.354 153.227M116.105 163.335L94.4704 174.135M116.105 163.335H186.371M136.354 153.227H204.37M0.321871 153.227L23.5344 143.746M0.321871 153.227H-4.59442M0.321871 153.227L-4.59442 155.235M204.37 153.227L186.371 163.335M23.5344 143.746H-4.59442M94.4704 174.135L71.3034 185.7M94.4704 174.135H167.14M186.371 163.335L167.14 174.135M167.14 174.135L146.547 185.7M-3.94096 185.7H71.3034M-3.94096 185.7H-4.59442M-3.94096 185.7L-4.59442 185.994M71.3034 185.7L46.434 198.115M71.3034 185.7H146.547M146.547 185.7L124.442 198.115M19.6693 211.476L46.434 198.115M19.6693 211.476H100.651M19.6693 211.476H-4.59442M19.6693 211.476L-4.59442 223.589M46.434 198.115H124.442M46.434 198.115H-4.59442M124.442 198.115L100.651 211.476M100.651 211.476L74.9739 225.897M74.9739 225.897L47.1777 241.507M74.9739 225.897H-4.59442M47.1777 241.507L16.988 258.462M47.1777 241.507H-4.59442M16.988 258.462H-4.59442M16.988 258.462L-4.59442 270.583M219.629 17.3642L210.054 20.4373M219.629 17.3642H257.406M219.629 17.3642H181.853M265.987 14.3985L274.273 11.5347M265.987 14.3985L257.406 17.3642M265.987 14.3985H303.103M274.273 11.5347H310.752M274.273 11.5347L282.28 8.76782M246.417 8.76782H282.28M246.417 8.76782L254.752 6.09256M246.417 8.76782H210.554M257.406 17.3642L248.514 20.4373M257.406 17.3642H295.183M303.103 14.3985L310.752 11.5347M303.103 14.3985L295.183 17.3642M310.752 11.5347L318.143 8.76782M282.28 8.76782L283.261 8.42812L290.02 6.09256M282.28 8.76782H318.143M295.183 17.3642L286.975 20.4373M354.006 8.76782L360.555 6.09256M354.006 8.76782H318.143M318.143 8.76782L319.049 8.42812L325.288 6.09256M210.054 20.4373H248.514M210.054 20.4373H171.594M239.294 23.6236L248.514 20.4373M239.294 23.6236L229.729 26.9295M239.294 23.6236H278.465M248.514 20.4373H286.975M171.594 20.4373H133.133M171.594 20.4373L181.853 17.3642M286.975 20.4373L278.465 23.6236M181.853 17.3642H144.077M229.729 26.9295L219.796 30.362M229.729 26.9295H269.634M278.465 23.6236L277.378 24.0297L269.634 26.9295M269.634 26.9295L260.466 30.362M179.127 30.362L168.013 33.9288M179.127 30.362H219.796M179.127 30.362H138.457M219.796 30.362L209.477 33.9288M219.796 30.362H260.466M260.466 30.362L250.94 33.9288M168.013 33.9288H209.477M168.013 33.9288H126.55M198.746 37.6375L209.477 33.9288M198.746 37.6375L187.579 41.4968M198.746 37.6375H241.034M209.477 33.9288H250.94M126.55 33.9288H85.0866M126.55 33.9288L138.457 30.362M250.94 33.9288L241.034 37.6375M138.457 30.362H97.788M187.579 41.4968L175.949 45.5161M187.579 41.4968H230.726M241.034 37.6375L230.726 41.4968M230.726 41.4968L219.991 45.5161M131.906 45.5161L118.851 49.7057M131.906 45.5161H175.949M131.906 45.5161H87.8636M175.949 45.5161L163.827 49.7057M175.949 45.5161H219.991M219.991 45.5161L208.801 49.7057M118.851 49.7057H163.827M118.851 49.7057H73.8764M151.179 54.0765L163.827 49.7057M151.179 54.0765L137.973 58.6404M151.179 54.0765H197.127M163.827 49.7057H208.801M73.8764 49.7057H28.9018M73.8764 49.7057L87.8636 45.5161M208.801 49.7057L197.127 54.0765M87.8636 45.5161H43.8217M137.973 58.6404L124.17 63.4109M137.973 58.6404H184.937M197.127 54.0765L184.937 58.6404M184.937 58.6404L172.195 63.4109M76.1444 63.4109L60.5922 68.4021M76.1444 63.4109H124.17M76.1444 63.4109H28.1197M124.17 63.4109L109.728 68.4021M124.17 63.4109H172.195M172.195 63.4109L158.865 68.4021M60.5922 68.4021H109.728M94.6022 73.6295L109.728 68.4021M94.6022 73.6295L78.7433 79.1105M94.6022 73.6295H144.903M109.728 68.4021H158.865M158.865 68.4021L144.903 73.6295M28.1197 63.4109H-4.59442M78.7433 79.1105L62.0952 84.8643M78.7433 79.1105H130.263M144.903 73.6295L130.263 79.1105M130.263 79.1105L114.896 84.8643M9.29467 84.8643H62.0952M9.29467 84.8643H-4.59442M9.29467 84.8643L-4.59442 89.3214M62.0952 84.8643L44.5983 90.911M62.0952 84.8643H114.896M114.896 84.8643L98.745 90.911M26.1867 97.2742L44.5983 90.911M26.1867 97.2742L6.78593 103.979M26.1867 97.2742H81.7494M26.1867 97.2742H-4.59442M44.5983 90.911H98.745M44.5983 90.911H-4.59442M98.745 90.911L81.7494 97.2742M-4.74739 89.3705L-4.59442 89.3214M6.78593 103.979H63.8407M6.78593 103.979H-4.59442M6.78593 103.979L-4.59442 107.912M81.7494 97.2742L63.8407 103.979M63.8407 103.979L44.9435 111.055M44.9435 111.055L24.9739 118.531M44.9435 111.055H-4.59442M3.8371 126.445L24.9739 118.531M3.8371 126.445H-4.59442M3.8371 126.445L-4.59442 129.602M24.9739 118.531H-4.59442M68.524 17.3642L56.2125 20.4373M68.524 17.3642H106.3M68.524 17.3642H30.7469M117.521 14.3985L128.357 11.5347M117.521 14.3985L106.3 17.3642M117.521 14.3985H154.638M128.357 11.5347H164.836M128.357 11.5347L138.827 8.76782M102.964 8.76782H138.827M102.964 8.76782L113.681 6.09256M102.964 8.76782H67.1009M106.3 17.3642L94.6728 20.4373M106.3 17.3642H144.077M154.638 14.3985L164.836 11.5347M154.638 14.3985L144.077 17.3642M164.836 11.5347L174.69 8.76782M138.827 8.76782H174.69M138.827 8.76782L148.95 6.09256M144.077 17.3642L133.133 20.4373M210.554 8.76782L219.485 6.09256M210.554 8.76782H174.69M174.69 8.76782L184.217 6.09256M56.2125 20.4373H94.6728M56.2125 20.4373H17.7521M82.6163 23.6236L94.6728 20.4373M82.6163 23.6236L70.1071 26.9295M82.6163 23.6236H121.786M94.6728 20.4373H133.133M17.7521 20.4373L30.7469 17.3642M17.7521 20.4373H-4.59442M133.133 20.4373L121.786 23.6236M30.7469 17.3642H-4.59442M70.1071 26.9295L57.1185 30.362M70.1071 26.9295H110.012M121.786 23.6236L110.012 26.9295M110.012 26.9295L97.788 30.362M16.4491 30.362L2.15989 33.9288M16.4491 30.362H57.1185M16.4491 30.362H-4.59442M57.1185 30.362L43.6232 33.9288M57.1185 30.362H97.788M97.788 30.362L85.0866 33.9288M29.5906 37.6375L43.6232 33.9288M29.5906 37.6375L14.9876 41.4968M29.5906 37.6375H71.8792M29.5906 37.6375H-4.59442M43.6232 33.9288H2.15989M43.6232 33.9288H85.0866M2.15989 33.9288L-4.59442 35.6145M2.15989 33.9288H-4.59442M85.0866 33.9288L71.8792 37.6375M14.9876 41.4968L-0.220986 45.5161M14.9876 41.4968H58.1352M14.9876 41.4968H-4.59442M71.8792 37.6375L58.1352 41.4968M58.1352 41.4968L43.8217 45.5161M-0.220986 45.5161H43.8217M-0.220986 45.5161L-4.59442 46.6717M-0.220986 45.5161H-4.59442M43.8217 45.5161L28.9018 49.7057M13.3363 54.0765L28.9018 49.7057M13.3363 54.0765L-2.91722 58.6404M13.3363 54.0765H-4.59442M28.9018 49.7057H-4.59442M-4.82977 49.7057H-4.59442M-2.91722 58.6404H-4.59442M-2.91722 58.6404L-4.59442 59.1113M-5 59.2252L-4.59442 59.1113M6.17247 14.3985L18.9202 11.5347M6.17247 14.3985H-4.59442M6.17247 14.3985L-4.59442 16.817M18.9202 11.5347L31.238 8.76782M18.9202 11.5347H-4.59442M67.1009 8.76782L78.4138 6.09256M67.1009 8.76782H31.238M31.238 8.76782L43.1463 6.09256M31.238 8.76782H-4.59442M1242.25 6.09256H1277.52M1242.25 6.09256H1206.98M1268.88 3.50492L1271.01 4.14395L1277.52 6.09256M1268.88 3.50492H1303.57M1277.52 6.09256H1312.78M1303.57 3.50492L1305.84 4.14395L1306.99 4.46495L1312.78 6.09256M1312.78 6.09256H1348.05M1348.05 6.09256H1383.32M1206.98 6.09256H1171.71M1383.32 6.09256H1418.59M1418.59 6.09256L1407.64 3.50492M1418.59 6.09256H1453.85M1407.64 3.50492H1442.33M1101.18 6.09256H1136.44M1101.18 6.09256H1065.91M1130.11 3.50492L1131.67 4.14395L1132.46 4.46495L1136.44 6.09256M1130.11 3.50492H1164.8M1136.44 6.09256H1171.71M1164.8 3.50492L1171.71 6.09256M1065.91 6.09256H1030.64M960.106 6.09256H995.374M960.106 6.09256H924.839M991.342 3.50492L991.839 3.82345L992.337 4.14395L992.838 4.46495L995.374 6.09256M991.342 3.50492H1026.03M995.374 6.09256H1030.64M1026.03 3.50492L1030.64 6.09256M924.839 6.09256H889.57M819.035 6.09256H854.303M819.035 6.09256H783.768M852.575 3.50492L854.303 6.09256M852.575 3.50492H887.267M854.303 6.09256H889.57M887.267 3.50492L887.551 3.82345L887.836 4.14395L888.122 4.46495L889.57 6.09256M783.768 6.09256H748.5M677.965 6.09256H713.232M677.965 6.09256H642.697M713.808 3.50492L713.232 6.09256M713.808 3.50492H748.5M713.232 6.09256H748.5M748.5 3.50492V6.09256M642.697 6.09256H607.429M536.894 6.09256H572.161M536.894 6.09256H501.626M575.041 3.50492L574.33 4.14395L572.89 5.43728L572.161 6.09256M575.041 3.50492H609.733M572.161 6.09256H607.429M609.733 3.50492L609.449 3.82345L609.164 4.14395L608.878 4.46495L607.429 6.09256M501.626 6.09256H466.359M395.823 6.09256H431.091M395.823 6.09256H360.555M436.275 3.50492L434.995 4.14395L434.351 4.46495L431.091 6.09256M436.275 3.50492H470.967M431.091 6.09256H466.359M470.967 3.50492L470.399 3.82345L466.359 6.09256M360.555 6.09256H325.288M254.752 6.09256H290.02M254.752 6.09256H219.485M297.508 3.50492L295.659 4.14395L294.728 4.46495L290.02 6.09256M297.508 3.50492H332.2M290.02 6.09256H325.288M332.2 3.50492L331.348 3.82345L325.288 6.09256M219.485 6.09256H184.217M113.681 6.09256H148.95M113.681 6.09256H78.4138M158.741 3.50492L148.95 6.09256M158.741 3.50492H193.433M148.95 6.09256H184.217M193.433 3.50492L191.158 4.14395L190.012 4.46495L184.217 6.09256M78.4138 6.09256H43.1463M19.9745 3.50492L7.8787 6.09256M19.9745 3.50492H54.6663M19.9745 3.50492H-4.59442M7.8787 6.09256H43.1463M7.8787 6.09256L-4.59442 8.76128M7.8787 6.09256H-4.59442M54.6663 3.50492L51.8218 4.14395L43.1463 6.09256M1442.33 3.50492L1445.18 4.14395L1453.85 6.09256M1453.85 6.09256H1489.12M1489.12 6.09256L1501.59 8.76129M1489.12 6.09256H1501.59M1501.59 129.602V126.445M1501.59 129.602V134.835M1501.59 126.445V118.531M1501.59 134.835V136.399V143.746M1501.59 143.746V153.227M1501.59 68.4021V63.4109M1501.59 68.4021V73.2094M1501.59 3.50492V6.09256M1501.59 6.09256V8.76129M1501.59 8.76129L1501.62 8.76782H1501.59M1501.59 8.76129V8.76782M1501.59 8.76782V11.5347M1501.59 11.5347V14.3985M1501.59 14.3985V16.817M1501.59 16.817V17.3642M1501.59 17.3642V20.4373M1501.59 20.4373V23.6236M1501.59 23.6236V25.7209M1501.59 25.7209V26.9295M1501.59 26.9295V30.362M1501.59 30.362V33.9288M1501.59 33.9288V35.6145M1501.59 35.6145V37.6375M1501.59 37.6375V41.4968M1501.59 41.4968V45.5161M1501.59 45.5161V46.6717M1501.59 46.6717V49.7057M1501.59 49.7057V54.0765M1501.59 54.0765V58.6404M1501.59 58.6404V59.1113M1501.59 59.1113V63.4109M1501.59 73.6295V79.1105M1501.59 73.6295V73.2094M1501.59 79.1105V84.8643M1501.59 84.8643V89.3214M1501.59 89.3214V90.911M1501.59 90.911V97.2742M1501.59 97.2742V103.979M1501.59 103.979V107.912M1501.59 107.912V111.055M1501.59 111.055V118.531M1501.59 153.227V155.235M1501.59 155.235V163.335M1501.59 163.335V174.135M1501.59 174.135V185.7M1501.59 185.7V185.994M1501.59 185.994V198.115M1501.59 198.115V211.476M1501.59 211.476V223.589M1501.59 223.589V225.897M1501.59 225.897V241.507M1501.59 241.507V258.462M1501.59 258.462V270.583M1501.59 270.583V276.942M1501.59 276.942V297.162M1501.59 297.162V319.382M1501.59 319.382V331.003M1501.59 331.003V343.912M1501.59 343.912V344H-4.59442V343.912M-4.59442 73.6295V79.1105M-4.59442 73.6295V73.2094M-4.59442 73.2094V68.4021M-4.59442 68.4021V63.4109M-4.59442 63.4109V59.1113M-4.59442 59.1113V58.6404M-4.59442 58.6404V54.0765M-4.59442 54.0765V49.7057M-4.59442 49.7057V46.6717M-4.59442 46.6717V45.5161M-4.59442 45.5161V41.4968M-4.59442 41.4968V37.6375M-4.59442 37.6375V35.6145M-4.59442 35.6145V33.9288M-4.59442 33.9288V30.362M-4.59442 30.362V26.9295M-4.59442 26.9295V25.7209M-4.59442 25.7209V23.6236M-4.59442 23.6236V20.4373M-4.59442 20.4373V17.3642M-4.59442 17.3642V16.817M-4.59442 16.817V14.3985M-4.59442 14.3985V11.5347M-4.59442 11.5347V8.76782M-4.59442 8.76782H-4.62502L-4.59442 8.76128M-4.59442 8.76782V8.76128M-4.59442 8.76128V6.09256M-4.59442 6.09256V3.50492M-4.59442 343.912V331.003M-4.59442 331.003V319.382M-4.59442 319.382V297.163M-4.59442 297.163V276.942M-4.59442 276.942V270.583M-4.59442 270.583V258.462M-4.59442 258.462V241.507M-4.59442 241.507V225.897M-4.59442 225.897V223.589M-4.59442 223.589V211.476M-4.59442 211.476V198.115M-4.59442 198.115V185.994M-4.59442 185.994V185.7M-4.59442 185.7V174.135M-4.59442 174.135V163.335M-4.59442 163.335V155.235M-4.59442 155.235V153.227M-4.59442 153.227V143.746M-4.59442 143.746V134.835M-4.59442 134.835V129.602M-4.59442 129.602V126.445M-4.59442 126.445V118.531M-4.59442 118.531V111.055M-4.59442 111.055V107.912M-4.59442 107.912V103.979M-4.59442 103.979V97.2742M-4.59442 97.2742V90.911M-4.59442 90.911V89.3214M-4.59442 89.3214V84.8643M-4.59442 84.8643V79.1105" stroke="url(#paint0_linear_108_71)" stroke-opacity="0.2" stroke-width="1.8895" stroke-miterlimit="10" stroke-linecap="round" stroke-linejoin="round"/>
<defs>
<linearGradient id="paint0_linear_108_71" x1="748.5" y1="1" x2="748.5" y2="241.485" gradientUnits="userSpaceOnUse">
<stop stop-color="#CED2DF" stop-opacity="0"/>
<stop offset="1" stop-color="#1E3677"/>
</linearGradient>
</defs>
</svg>
