<svg width="72" height="72" viewBox="0 0 72 72" fill="none" xmlns="http://www.w3.org/2000/svg">
<circle cx="36" cy="36" r="35" stroke="#D9D9D9" stroke-width="2"/>
<path opacity="0.5" d="M21 33.3613C21 28.0319 21 25.3673 21.6292 24.4708C22.2584 23.5744 24.7639 22.7168 29.7749 21.0015L30.7295 20.6747C33.3416 19.7806 34.6477 19.3335 36 19.3335C37.3523 19.3335 38.6584 19.7806 41.2705 20.6747L42.2251 21.0015C47.2361 22.7168 49.7416 23.5744 50.3708 24.4708C51 25.3673 51 28.0319 51 33.3613C51 34.1662 51 35.0392 51 35.9858C51 45.3826 43.9351 49.9426 39.5024 51.879C38.3 52.4042 37.6988 52.6668 36 52.6668C34.3012 52.6668 33.7 52.4042 32.4976 51.879C28.0649 49.9426 21 45.3826 21 35.9858C21 35.0392 21 34.1662 21 33.3613Z" stroke="#141414" stroke-width="2"/>
<path d="M44.3334 35.9998C44.3334 37.0942 44.1178 38.1778 43.699 39.1889C43.2802 40.1999 42.6664 41.1186 41.8926 41.8924C41.1188 42.6662 40.2001 43.28 39.189 43.6988C38.178 44.1176 37.0944 44.3332 36 44.3332C34.9057 44.3332 33.822 44.1176 32.811 43.6988C31.7999 43.28 30.8813 42.6662 30.1075 41.8924C29.3336 41.1186 28.7198 40.1999 28.301 39.1889C27.8822 38.1778 27.6667 37.0942 27.6667 35.9998C27.6667 34.9055 27.8822 33.8219 28.301 32.8108C28.7198 31.7998 29.3336 30.8811 30.1075 30.1073C30.8813 29.3335 31.7999 28.7196 32.811 28.3008C33.822 27.8821 34.9057 27.6665 36 27.6665C37.0944 27.6665 38.178 27.8821 39.189 28.3008C40.2001 28.7196 41.1188 29.3335 41.8926 30.1073C42.6664 30.8811 43.2802 31.7998 43.699 32.8108C44.1178 33.8219 44.3334 34.9055 44.3334 35.9998L44.3334 35.9998Z" stroke="#141414" stroke-width="2"/>
<path d="M39.0796 39.1889C39.2471 38.1778 39.3334 37.0942 39.3334 35.9998C39.3334 34.9055 39.2471 33.8219 39.0796 32.8108C38.9121 31.7998 38.6666 30.8811 38.357 30.1073C38.0475 29.3335 37.6801 28.7196 37.2756 28.3008C36.8712 27.8821 36.4378 27.6665 36 27.6665C35.5623 27.6665 35.1288 27.8821 34.7244 28.3008C34.32 28.7196 33.9525 29.3335 33.643 30.1073C33.3335 30.8811 33.0879 31.7998 32.9204 32.8108C32.7529 33.8219 32.6667 34.9055 32.6667 35.9998C32.6667 37.0942 32.7529 38.1778 32.9204 39.1889C33.0879 40.1999 33.3335 41.1186 33.643 41.8924C33.9525 42.6662 34.32 43.28 34.7244 43.6988C35.1288 44.1176 35.5623 44.3332 36 44.3332C36.4378 44.3332 36.8712 44.1176 37.2756 43.6988C37.6801 43.28 38.0475 42.6662 38.357 41.8924C38.6666 41.1186 38.9121 40.1999 39.0796 39.1889Z" stroke="#141414" stroke-width="2"/>
<path d="M27.6667 36H44.3334" stroke="#141414" stroke-width="2" stroke-linecap="round"/>
</svg>
