<svg width="72" height="72" viewBox="0 0 72 72" fill="none" xmlns="http://www.w3.org/2000/svg">
<circle cx="36" cy="36" r="35" stroke="#D9D9D9" stroke-width="2"/>
<path opacity="0.5" d="M21 33.3613C21 28.0319 21 25.3673 21.6292 24.4708C22.2584 23.5744 24.7639 22.7168 29.7749 21.0015L30.7295 20.6747C33.3416 19.7806 34.6477 19.3335 36 19.3335C37.3523 19.3335 38.6584 19.7806 41.2705 20.6747L42.2251 21.0015C47.2361 22.7168 49.7416 23.5744 50.3708 24.4708C51 25.3673 51 28.0319 51 33.3613C51 34.1662 51 35.0392 51 35.9858C51 45.3826 43.9351 49.9426 39.5024 51.879C38.3 52.4042 37.6988 52.6668 36 52.6668C34.3012 52.6668 33.7 52.4042 32.4976 51.879C28.0649 49.9426 21 45.3826 21 35.9858C21 35.0392 21 34.1662 21 33.3613Z" stroke="white" stroke-width="2"/>
<path d="M44.3333 35.9998C44.3333 37.0942 44.1177 38.1778 43.699 39.1889C43.2802 40.1999 42.6663 41.1186 41.8925 41.8924C41.1187 42.6662 40.2 43.28 39.189 43.6988C38.1779 44.1176 37.0943 44.3332 36 44.3332C34.9056 44.3332 33.822 44.1176 32.8109 43.6988C31.7999 43.28 30.8812 42.6662 30.1074 41.8924C29.3336 41.1186 28.7198 40.1999 28.301 39.1889C27.8822 38.1778 27.6666 37.0942 27.6666 35.9998C27.6666 34.9055 27.8822 33.8219 28.301 32.8108C28.7198 31.7998 29.3336 30.8811 30.1074 30.1073C30.8812 29.3335 31.7999 28.7196 32.8109 28.3008C33.822 27.8821 34.9056 27.6665 36 27.6665C37.0943 27.6665 38.1779 27.8821 39.189 28.3008C40.2 28.7196 41.1187 29.3335 41.8925 30.1073C42.6663 30.8811 43.2802 31.7998 43.699 32.8108C44.1177 33.8219 44.3333 34.9055 44.3333 35.9998L44.3333 35.9998Z" stroke="white" stroke-width="2"/>
<path d="M39.0796 39.1889C39.2471 38.1778 39.3333 37.0942 39.3333 35.9998C39.3333 34.9055 39.2471 33.8219 39.0796 32.8108C38.912 31.7998 38.6665 30.8811 38.357 30.1073C38.0475 29.3335 37.68 28.7196 37.2756 28.3008C36.8712 27.8821 36.4377 27.6665 36 27.6665C35.5622 27.6665 35.1288 27.8821 34.7243 28.3008C34.3199 28.7196 33.9525 29.3335 33.6429 30.1073C33.3334 30.8811 33.0879 31.7998 32.9204 32.8108C32.7528 33.8219 32.6666 34.9055 32.6666 35.9998C32.6666 37.0942 32.7528 38.1778 32.9204 39.1889C33.0879 40.1999 33.3334 41.1186 33.6429 41.8924C33.9525 42.6662 34.3199 43.28 34.7243 43.6988C35.1288 44.1176 35.5622 44.3332 36 44.3332C36.4377 44.3332 36.8712 44.1176 37.2756 43.6988C37.68 43.28 38.0475 42.6662 38.357 41.8924C38.6665 41.1186 38.912 40.1999 39.0796 39.1889Z" stroke="white" stroke-width="2"/>
<path d="M27.6666 36H44.3333" stroke="white" stroke-width="2" stroke-linecap="round"/>
</svg>
