<svg width="96" height="96" viewBox="0 0 96 96" fill="none" xmlns="http://www.w3.org/2000/svg">
<circle cx="48" cy="48" r="46" fill="#1C274C" stroke="white" stroke-width="4"/>
<path opacity="0.5" d="M48 71.3332V66.6665" stroke="white" stroke-width="1.5" stroke-linecap="round"/>
<path d="M29.3335 58.6453C33.7397 63.5683 40.143 66.6665 47.2698 66.6665C60.5598 66.6665 71.3335 55.8928 71.3335 42.6028C71.3335 35.476 68.2353 29.0727 63.3123 24.6665" stroke="white" stroke-width="1.5" stroke-linecap="round"/>
<path opacity="0.5" d="M36.3332 30.6228C37.6986 31.9123 40.5114 35.4368 40.8391 39.2192C41.1454 42.7547 43.3957 45.6276 46.8332 45.6665C48.1542 45.6815 49.4903 44.6918 49.4869 43.3217C49.4858 42.8981 49.4184 42.4649 49.3129 42.0664C49.1661 41.5121 49.1531 40.8744 49.4582 40.2221C50.5255 37.9401 52.6246 37.3271 54.2879 36.0877C55.0256 35.5381 55.6986 34.9582 55.9953 34.4912C56.8146 33.2017 57.6338 30.6228 57.2242 29.3333M51.0121 59.6667C50.4998 58.7011 49.7825 56.1908 51.0121 53.8736C52.5492 50.977 57.6726 50.977 57.6726 50.977C61.6194 50.9358 63.0426 49.1535 63.7111 47.565M64.3332 43.3333C64.3332 52.354 57.0205 59.6667 47.9998 59.6667C38.9792 59.6667 31.6665 52.354 31.6665 43.3333C31.6665 34.3127 38.9792 27 47.9998 27C57.0205 27 64.3332 34.3127 64.3332 43.3333Z" stroke="white" stroke-width="1.5"/>
<path d="M43.3335 71.3335H52.6668" stroke="white" stroke-width="1.5" stroke-linecap="round"/>
</svg>
