<svg width="96" height="96" viewBox="0 0 96 96" fill="none" xmlns="http://www.w3.org/2000/svg">
<circle cx="48" cy="48" r="46" fill="#1C274C" stroke="white" stroke-width="4"/>
<path opacity="0.5" d="M65.6439 36.3332C66.1773 33.2887 63.8346 30.4998 60.7438 30.4998H35.2549C32.164 30.4998 29.8213 33.2887 30.3548 36.3332M60.833 30.4998C60.8992 29.8953 60.9323 29.593 60.9329 29.3433C60.9381 26.9549 59.139 24.948 56.7642 24.6931C56.5159 24.6665 56.2118 24.6665 55.6036 24.6665H40.3955C39.7873 24.6665 39.4832 24.6665 39.235 24.6931C36.8601 24.948 35.0611 26.9549 35.0663 29.3433C35.0668 29.593 35.0999 29.8953 35.1661 30.4998" stroke="white" stroke-width="1.5"/>
<path d="M55 62H41" stroke="white" stroke-width="1.5" stroke-linecap="round"/>
<path d="M25.5614 52.1838C24.5206 44.8022 24.0003 41.1114 26.2119 38.7224C28.4236 36.3335 32.3608 36.3335 40.2354 36.3335H55.7643C63.6388 36.3335 67.5761 36.3335 69.7878 38.7224C71.9994 41.1114 71.479 44.8022 70.4383 52.1838L69.4514 59.1838C68.6352 64.9725 68.2272 67.8669 66.1337 69.6002C64.0403 71.3335 60.9526 71.3335 54.7773 71.3335H41.2224C35.0471 71.3335 31.9594 71.3335 29.866 69.6002C27.7725 67.8669 27.3644 64.9725 26.5483 59.1838L25.5614 52.1838Z" stroke="white" stroke-width="1.5"/>
</svg>
