<svg width="96" height="96" viewBox="0 0 96 96" fill="none" xmlns="http://www.w3.org/2000/svg">
<circle cx="48" cy="48" r="46" fill="#1C274C" stroke="white" stroke-width="4"/>
<path d="M24.6665 47.9998C24.6665 37.0004 24.6665 31.5007 28.0836 28.0836C31.5007 24.6665 37.0004 24.6665 47.9998 24.6665C58.9993 24.6665 64.499 24.6665 67.9161 28.0836C71.3332 31.5007 71.3332 37.0004 71.3332 47.9998C71.3332 58.9993 71.3332 64.499 67.9161 67.9161C64.499 71.3332 58.9993 71.3332 47.9998 71.3332C37.0004 71.3332 31.5007 71.3332 28.0836 67.9161C24.6665 64.499 24.6665 58.9993 24.6665 47.9998Z" stroke="white" stroke-width="1.5"/>
<path d="M51.5 48C51.5 49.933 49.933 51.5 48 51.5C46.067 51.5 44.5 49.933 44.5 48C44.5 46.067 46.067 44.5 48 44.5C49.933 44.5 51.5 46.067 51.5 48Z" fill="white"/>
<path opacity="0.5" d="M48.7502 47.9998V38.6665H47.2502V47.9998H48.7502ZM47.7047 48.6892L55.8714 52.1892L56.4623 50.8105L48.2956 47.3105L47.7047 48.6892ZM47.7047 47.3105L39.5381 50.8105L40.1289 52.1892L48.2956 48.6892L47.7047 47.3105Z" fill="white"/>
<path d="M47.9998 56.5832C43.2594 56.5832 39.4165 52.7403 39.4165 47.9998H37.9165C37.9165 53.5687 42.431 58.0832 47.9998 58.0832V56.5832ZM56.5832 47.9998C56.5832 52.7403 52.7403 56.5832 47.9998 56.5832V58.0832C53.5687 58.0832 58.0832 53.5687 58.0832 47.9998H56.5832ZM47.9998 39.4165C52.7403 39.4165 56.5832 43.2594 56.5832 47.9998H58.0832C58.0832 42.431 53.5687 37.9165 47.9998 37.9165V39.4165ZM47.9998 37.9165C42.431 37.9165 37.9165 42.431 37.9165 47.9998H39.4165C39.4165 43.2594 43.2594 39.4165 47.9998 39.4165V37.9165Z" fill="white"/>
<path opacity="0.5" d="M31.25 36.3332C31.25 35.919 30.9142 35.5832 30.5 35.5832C30.0858 35.5832 29.75 35.919 29.75 36.3332H31.25ZM29.75 43.3332C29.75 43.7474 30.0858 44.0832 30.5 44.0832C30.9142 44.0832 31.25 43.7474 31.25 43.3332H29.75ZM31.25 52.6665C31.25 52.2523 30.9142 51.9165 30.5 51.9165C30.0858 51.9165 29.75 52.2523 29.75 52.6665H31.25ZM29.75 59.6665C29.75 60.0807 30.0858 60.4165 30.5 60.4165C30.9142 60.4165 31.25 60.0807 31.25 59.6665H29.75ZM45.6667 32.4165H50.3333V30.9165H45.6667V32.4165ZM63.5833 45.6665V50.3332H65.0833V45.6665H63.5833ZM50.3333 63.5832H45.6667V65.0832H50.3333V63.5832ZM32.4167 50.3332V45.6665H30.9167V50.3332H32.4167ZM45.6667 63.5832C42.3456 63.5832 39.9303 63.5816 38.0857 63.3336C36.2627 63.0885 35.1098 62.6151 34.2472 61.7526L33.1866 62.8132C34.3743 64.0009 35.8965 64.5527 37.8858 64.8202C39.8536 65.0848 42.388 65.0832 45.6667 65.0832V63.5832ZM30.9167 50.3332C30.9167 53.6118 30.9151 56.1462 31.1796 58.114C31.4471 60.1034 31.9989 61.6255 33.1866 62.8132L34.2472 61.7526C33.3847 60.89 32.9114 59.7372 32.6663 57.9141C32.4183 56.0695 32.4167 53.6542 32.4167 50.3332H30.9167ZM63.5833 50.3332C63.5833 53.6542 63.5817 56.0695 63.3337 57.9141C63.0886 59.7372 62.6153 60.89 61.7528 61.7526L62.8134 62.8132C64.0011 61.6255 64.5529 60.1034 64.8204 58.114C65.0849 56.1462 65.0833 53.6118 65.0833 50.3332H63.5833ZM50.3333 65.0832C53.612 65.0832 56.1464 65.0848 58.1142 64.8202C60.1035 64.5527 61.6257 64.0009 62.8134 62.8132L61.7528 61.7526C60.8902 62.6151 59.7373 63.0885 57.9143 63.3336C56.0697 63.5816 53.6544 63.5832 50.3333 63.5832V65.0832ZM50.3333 32.4165C53.6544 32.4165 56.0697 32.4181 57.9143 32.6661C59.7373 32.9112 60.8902 33.3845 61.7528 34.2471L62.8134 33.1864C61.6257 31.9987 60.1035 31.4469 58.1142 31.1795C56.1464 30.9149 53.612 30.9165 50.3333 30.9165V32.4165ZM65.0833 45.6665C65.0833 42.3879 65.0849 39.8535 64.8204 37.8857C64.5529 35.8963 64.0011 34.3741 62.8134 33.1864L61.7528 34.2471C62.6153 35.1096 63.0886 36.2625 63.3337 38.0855C63.5817 39.9301 63.5833 42.3455 63.5833 45.6665H65.0833ZM45.6667 30.9165C42.388 30.9165 39.8536 30.9149 37.8858 31.1795C35.8965 31.4469 34.3743 31.9987 33.1866 33.1864L34.2472 34.2471C35.1098 33.3845 36.2627 32.9112 38.0857 32.6661C39.9303 32.4181 42.3456 32.4165 45.6667 32.4165V30.9165ZM32.4167 45.6665C32.4167 42.3455 32.4183 39.9301 32.6663 38.0855C32.9114 36.2625 33.3847 35.1096 34.2472 34.2471L33.1866 33.1864C31.9989 34.3741 31.4471 35.8963 31.1796 37.8857C30.9151 39.8535 30.9167 42.3879 30.9167 45.6665H32.4167ZM29.75 36.3332V43.3332H31.25V36.3332H29.75ZM29.75 52.6665V59.6665H31.25V52.6665H29.75Z" fill="white"/>
</svg>
