<svg width="40" height="40" viewBox="0 0 40 40" fill="none" xmlns="http://www.w3.org/2000/svg">
<rect width="40" height="40" rx="8" fill="#1C274C"/>
<path opacity="0.5" d="M14 16.1075C14 12.7344 16.6863 10 20 10C23.3137 10 26 12.7344 26 16.1075C26 19.4541 24.085 23.3593 21.0972 24.7558C20.4007 25.0814 19.5993 25.0814 18.9028 24.7558C15.915 23.3593 14 19.4541 14 16.1075Z" stroke="white" stroke-width="1.5"/>
<path d="M22 16C22 17.1046 21.1046 18 20 18C18.8954 18 18 17.1046 18 16C18 14.8954 18.8954 14 20 14C21.1046 14 22 14.8954 22 16Z" stroke="white" stroke-width="1.5"/>
<path d="M20 28.6875L20.4939 29.2519C20.6566 29.1095 20.75 28.9038 20.75 28.6875C20.75 28.4712 20.6566 28.2655 20.4939 28.1231L20 28.6875ZM29.4263 22.4122C29.1016 22.1549 28.6299 22.2096 28.3727 22.5342C28.1155 22.8589 28.1701 23.3306 28.4948 23.5878L29.4263 22.4122ZM11.5052 23.5878C11.8299 23.3306 11.8845 22.8589 11.6273 22.5342C11.3701 22.2096 10.8984 22.1549 10.5737 22.4122L11.5052 23.5878ZM18.5 27.375L18.9939 26.8106C18.7724 26.6168 18.4581 26.5704 18.1901 26.692C17.9221 26.8136 17.75 27.0807 17.75 27.375H18.5ZM18.5 30H17.75C17.75 30.2943 17.9221 30.5614 18.1901 30.683C18.4581 30.8046 18.7724 30.7582 18.9939 30.5644L18.5 30ZM22.4244 27.8173C22.0123 27.859 21.7121 28.227 21.7538 28.6391C21.7956 29.0512 22.1635 29.3514 22.5756 29.3096L22.4244 27.8173ZM18.5443 27.8948C16.2015 27.756 14.1725 27.2897 12.7556 26.6471C12.0458 26.3252 11.5244 25.9747 11.1906 25.6296C10.8603 25.288 10.75 24.993 10.75 24.75H9.25C9.25 25.494 9.60081 26.1434 10.1124 26.6724C10.6207 27.1979 11.3221 27.644 12.136 28.0131C13.7662 28.7525 15.9873 29.246 18.4557 29.3922L18.5443 27.8948ZM28.4948 23.5878C29.0684 24.0424 29.25 24.443 29.25 24.75H30.75C30.75 23.7998 30.1833 23.012 29.4263 22.4122L28.4948 23.5878ZM10.75 24.75C10.75 24.443 10.9316 24.0424 11.5052 23.5878L10.5737 22.4122C9.81667 23.012 9.25 23.7998 9.25 24.75H10.75ZM20.4939 28.1231L18.9939 26.8106L18.0061 27.9394L19.5061 29.2519L20.4939 28.1231ZM17.75 27.375V28.6435H19.25V27.375H17.75ZM17.75 28.6435V30H19.25V28.6435H17.75ZM18.9939 30.5644L20.4939 29.2519L19.5061 28.1231L18.0061 29.4356L18.9939 30.5644ZM29.25 24.75C29.25 25.2066 28.8246 25.8623 27.5314 26.5103C26.3014 27.1266 24.522 27.6047 22.4244 27.8173L22.5756 29.3096C24.791 29.0851 26.7617 28.5738 28.2034 27.8514C29.5819 27.1606 30.75 26.1281 30.75 24.75H29.25Z" fill="white"/>
</svg>
