<svg width="72" height="72" viewBox="0 0 72 72" fill="none" xmlns="http://www.w3.org/2000/svg">
<circle cx="36" cy="36" r="35" stroke="#D9D9D9" stroke-width="2"/>
<path d="M52.6667 24.9421L53.6667 24.9422V24.9421H52.6667ZM31.7576 38.1716L32.4632 37.463L31.7576 38.1716ZM31.7576 30.2398L32.4632 30.9484V30.9484L31.7576 30.2398ZM41.7143 40.1545L41.0087 39.446L41.7143 40.1545ZM33.7489 40.1545L33.0433 40.8631L33.7489 40.1545ZM50.1922 31.7124L50.8978 32.421L50.1922 31.7124ZM52.6667 25.7635L51.6667 25.7635V25.7635H52.6667ZM40.2355 21.7976L39.5298 21.089L40.2355 21.7976ZM38.4841 42.822L38.1388 41.8835L38.4841 42.822ZM29.1038 33.3921L30.0314 33.7656L29.1038 33.3921ZM49.4866 31.0038L41.0087 39.446L42.4199 40.8631L50.8978 32.421L49.4866 31.0038ZM34.4545 39.446L32.4632 37.463L31.052 38.8802L33.0433 40.8631L34.4545 39.446ZM32.4632 30.9484L40.9411 22.5062L39.5298 21.089L31.052 29.5312L32.4632 30.9484ZM46.2095 20.3335H47.0343V18.3335H46.2095V20.3335ZM51.6667 24.9421L51.6667 25.7635L53.6667 25.7635L53.6667 24.9422L51.6667 24.9421ZM47.0343 20.3335C48.3901 20.3335 49.3067 20.3356 49.9918 20.4273C50.6485 20.5153 50.9408 20.6688 51.1363 20.8635L52.5475 19.4463C51.9181 18.8196 51.1342 18.5624 50.2572 18.445C49.4085 18.3314 48.3338 18.3335 47.0343 18.3335V20.3335ZM53.6667 24.9421C53.6667 23.6486 53.6689 22.5774 53.5546 21.7312C53.4364 20.8559 53.1774 20.0735 52.5475 19.4463L51.1363 20.8635C51.3312 21.0575 51.4846 21.3468 51.5726 21.9988C51.6646 22.68 51.6667 23.5918 51.6667 24.9421H53.6667ZM32.4632 37.463C31.5044 36.5082 30.8582 35.8617 30.4392 35.3149C30.0378 34.7911 29.9414 34.4786 29.9414 34.2057H27.9414C27.9414 35.0943 28.3143 35.83 28.8517 36.5313C29.3715 37.2097 30.1333 37.9654 31.052 38.8802L32.4632 37.463ZM33.0433 40.8631C33.962 41.778 34.7208 42.5366 35.4019 43.054C36.1063 43.5892 36.8431 43.9589 37.7316 43.9589V41.9589C37.4536 41.9589 37.1378 41.8612 36.6118 41.4615C36.0626 41.0442 35.4133 40.4006 34.4545 39.446L33.0433 40.8631ZM50.8978 32.421C52.0607 31.263 52.8526 30.4995 53.2685 29.4997L51.4219 28.7316C51.1946 29.2778 50.7656 29.7302 49.4866 31.0038L50.8978 32.421ZM51.6667 25.7635C51.6667 27.5648 51.6489 28.1858 51.4219 28.7316L53.2685 29.4997C53.6845 28.4995 53.6667 27.4011 53.6667 25.7635H51.6667ZM40.9411 22.5062C42.2196 21.2331 42.6744 20.805 43.2245 20.5781L42.4619 18.7292C41.4593 19.1428 40.6932 19.9305 39.5298 21.089L40.9411 22.5062ZM46.2095 18.3335C44.5642 18.3335 43.464 18.3159 42.4619 18.7292L43.2245 20.5781C43.775 20.3511 44.4015 20.3335 46.2095 20.3335V18.3335ZM41.0087 39.446C40.2681 40.1834 39.7078 40.7406 39.2256 41.1565C38.7417 41.5739 38.4079 41.7844 38.1388 41.8835L38.8293 43.7605C39.4349 43.5377 39.9849 43.1427 40.5319 42.671C41.0805 42.1978 41.6979 41.5821 42.4199 40.8631L41.0087 39.446ZM38.1388 41.8835C37.9955 41.9362 37.8656 41.9589 37.7316 41.9589V43.9589C38.1131 43.9589 38.4764 43.8903 38.8293 43.7605L38.1388 41.8835ZM31.052 29.5312C30.3473 30.2329 29.7419 30.835 29.2724 31.3701C28.8047 31.9032 28.4104 32.4368 28.1761 33.0186L30.0314 33.7656C30.1397 33.4966 30.3589 33.1644 30.7758 32.6891C31.191 32.216 31.7412 31.6673 32.4632 30.9484L31.052 29.5312ZM28.1761 33.0186C28.0235 33.3978 27.9414 33.7901 27.9414 34.2057H29.9414C29.9414 34.0635 29.9676 33.9241 30.0314 33.7656L28.1761 33.0186Z" fill="#141414"/>
<path opacity="0.5" d="M28.8481 33.1368L29.5548 32.4293L29.5538 32.4282L28.8481 33.1368ZM35.198 27.1135C35.6626 27.4121 36.2813 27.2776 36.5799 26.813C36.8786 26.3485 36.744 25.7297 36.2795 25.4311L35.198 27.1135ZM34.8264 25.6858L34.2856 26.527L34.2856 26.527L34.8264 25.6858ZM31.1004 23.7763L31.2465 22.787H31.2465L31.1004 23.7763ZM23.9933 28.0564L24.6989 28.765L24.6989 28.765L23.9933 28.0564ZM28.509 24.1071L28.8918 25.0309L28.509 24.1071ZM24.9184 30.088L25.2864 29.1582L25.2864 29.1582L24.9184 30.088ZM25.0971 30.1594L24.7165 31.0842L25.0971 30.1594ZM27.4551 31.7496L28.1607 31.041V31.041L27.4551 31.7496ZM27.3185 31.6145L26.6226 32.3326L27.3185 31.6145ZM24.3694 29.8707L24.0014 30.8005L24.0014 30.8005L24.3694 29.8707ZM38.8917 43.2291L38.1851 43.9367C38.2005 43.9521 38.2165 43.9671 38.2329 43.9815L38.8917 43.2291ZM46.5375 35.6461C46.2371 35.1826 45.6179 35.0505 45.1545 35.3509C44.691 35.6514 44.5589 36.2706 44.8593 36.734L46.5375 35.6461ZM46.2874 37.0986L45.4483 37.6425L45.4483 37.6425L46.2874 37.0986ZM48.205 40.8088L49.1941 40.6616L48.205 40.8088ZM43.9067 47.886L44.6124 48.5946L44.6124 48.5946L43.9067 47.886ZM47.8728 43.3893L48.7955 43.7749L47.8728 43.3893ZM42.1528 47.682L43.0816 47.3113L42.1528 47.682ZM41.4653 46.1007L40.5887 46.582L41.4653 46.1007ZM39.6499 43.8931L40.3555 43.1845L40.3328 43.1619L40.3087 43.1408L39.6499 43.8931ZM40.8359 45.1479L41.6226 44.5306L40.8359 45.1479ZM43.7849 48.0073L43.0793 47.2987L43.0793 47.2987L43.7849 48.0073ZM39.1907 42.1144C38.7999 41.7241 38.1667 41.7245 37.7765 42.1152C37.3862 42.506 37.3866 43.1391 37.7773 43.5294L39.1907 42.1144ZM28.397 34.0996C28.7878 34.4899 29.4209 34.4895 29.8112 34.0987C30.2015 33.708 30.2011 33.0748 29.8104 32.6845L28.397 34.0996ZM36.2795 25.4311L35.3671 24.8446L34.2856 26.527L35.198 27.1135L36.2795 25.4311ZM35.3671 24.8446C34.4649 24.2647 33.741 23.7984 33.1187 23.4636C32.4839 23.1219 31.8949 22.8827 31.2465 22.787L30.9544 24.7656C31.2866 24.8146 31.6455 24.9419 32.1709 25.2247C32.7089 25.5143 33.3576 25.9304 34.2856 26.527L35.3671 24.8446ZM24.6989 28.765C25.515 27.9524 26.3922 27.0793 27.1808 26.3607C27.5749 26.0016 27.9349 25.6922 28.2448 25.4537C28.57 25.2032 28.7831 25.076 28.8918 25.0309L28.1261 23.1833C27.7643 23.3332 27.3806 23.5949 27.0247 23.8689C26.6534 24.1547 26.248 24.5049 25.8338 24.8823C25.006 25.6365 24.096 26.543 23.2877 27.3478L24.6989 28.765ZM31.2465 22.787C30.1976 22.6322 29.1184 22.7721 28.1261 23.1833L28.8918 25.0309C29.5596 24.7541 30.2738 24.6651 30.9544 24.7656L31.2465 22.787ZM24.0014 30.8005L24.5504 31.0178L25.2864 29.1582L24.7374 28.9409L24.0014 30.8005ZM26.7495 32.4582L28.1425 33.8454L29.5538 32.4282L28.1607 31.041L26.7495 32.4582ZM24.5504 31.0178C24.6425 31.0543 24.6801 31.0692 24.7165 31.0842L25.4776 29.2346C25.4258 29.2133 25.3737 29.1927 25.2864 29.1582L24.5504 31.0178ZM28.1607 31.041C28.0943 30.9749 28.0547 30.9354 28.0144 30.8964L26.6226 32.3326C26.6508 32.36 26.6795 32.3885 26.7495 32.4582L28.1607 31.041ZM24.7165 31.0842C25.426 31.3761 26.0728 31.7999 26.6226 32.3326L28.0144 30.8964C27.2823 30.1869 26.4213 29.623 25.4776 29.2346L24.7165 31.0842ZM23.2877 27.3478C22.2093 28.4217 22.5904 30.2421 24.0014 30.8005L24.7374 28.9409C24.6608 28.9106 24.6455 28.8183 24.6989 28.765L23.2877 27.3478ZM44.8593 36.734L45.4483 37.6425L47.1265 36.5546L46.5375 35.6461L44.8593 36.734ZM43.2011 47.1774L43.0793 47.2987L44.4905 48.7159L44.6124 48.5946L43.2011 47.1774ZM45.4483 37.6425C46.0474 38.5667 46.4652 39.2125 46.7558 39.7479C47.0397 40.2709 47.1669 40.6271 47.2159 40.956L49.1941 40.6616C49.0977 40.014 48.8569 39.4263 48.5136 38.7939C48.1772 38.174 47.7088 37.4529 47.1265 36.5546L45.4483 37.6425ZM44.6124 48.5946C45.4206 47.7897 46.3309 46.8835 47.0883 46.0592C47.4673 45.6468 47.8191 45.243 48.1062 44.8731C48.3812 44.5189 48.6445 44.1363 48.7955 43.7749L46.9501 43.0037C46.9053 43.111 46.7779 43.3226 46.5264 43.6466C46.2869 43.9551 45.9762 44.3136 45.6156 44.706C44.894 45.4913 44.0172 46.3647 43.2011 47.1774L44.6124 48.5946ZM47.2159 40.956C47.3164 41.6314 47.2274 42.3403 46.9501 43.0037L48.7955 43.7749C49.2091 42.7853 49.3499 41.7085 49.1941 40.6616L47.2159 40.956ZM40.3087 43.1408L39.5506 42.4768L38.2329 43.9815L38.9911 44.6454L40.3087 43.1408ZM43.0816 47.3113C42.7695 46.5295 42.5846 46.0614 42.3418 45.6193L40.5887 46.582C40.759 46.8921 40.8947 47.2275 41.2241 48.0526L43.0816 47.3113ZM38.9443 44.6017C39.5748 45.2295 39.8305 45.4866 40.0492 45.7652L41.6226 44.5306C41.3112 44.1337 40.953 43.7794 40.3555 43.1845L38.9443 44.6017ZM42.3418 45.6193C42.1321 45.2375 41.8916 44.8734 41.6226 44.5306L40.0492 45.7652C40.251 46.0225 40.4315 46.2957 40.5887 46.582L42.3418 45.6193ZM43.0793 47.2987C43.0776 47.3003 43.0776 47.3 43.0792 47.2991C43.0806 47.2983 43.0818 47.2979 43.0823 47.2977C43.0827 47.2976 43.082 47.2979 43.0802 47.2979C43.0783 47.298 43.0759 47.2978 43.0734 47.2973C43.0675 47.2962 43.0669 47.2945 43.0705 47.2973C43.0725 47.299 43.0751 47.3015 43.0777 47.3049C43.0789 47.3065 43.0799 47.3081 43.0806 47.3093C43.0813 47.3106 43.0816 47.3113 43.0816 47.3113L41.2241 48.0526C41.7574 49.3889 43.4907 49.7116 44.4905 48.7159L43.0793 47.2987ZM39.5984 42.5216L39.1907 42.1144L37.7773 43.5294L38.1851 43.9367L39.5984 42.5216ZM28.1415 33.8443L28.397 34.0996L29.8104 32.6845L29.5548 32.4293L28.1415 33.8443Z" fill="#141414"/>
<path d="M25.247 37.6665L22.4275 40.4826C21.7197 41.1896 20.5721 41.1896 19.8642 40.4826C19.1564 39.7757 19.1564 38.6295 19.8642 37.9225L20.1206 37.6665M34.4595 46.9492L31.64 49.7653C30.9321 50.4723 30.9321 51.6185 31.64 52.3254C32.3478 53.0324 33.4954 53.0324 34.2032 52.3254L34.4595 52.0694M27.5601 44.5979L24.7108 47.3845" stroke="#141414" stroke-width="2" stroke-linecap="round"/>
<path opacity="0.5" d="M33.5447 44.4663C33.9352 44.0758 33.9352 43.4426 33.5447 43.0521C33.1542 42.6616 32.521 42.6616 32.1305 43.0521L33.5447 44.4663ZM28.6264 46.5562C28.2359 46.9467 28.2359 47.5799 28.6264 47.9704C29.017 48.3609 29.6501 48.3609 30.0406 47.9704L28.6264 46.5562ZM28.9185 39.8458C29.309 39.4553 29.309 38.8221 28.9185 38.4316C28.528 38.041 27.8948 38.041 27.5043 38.4316L28.9185 39.8458ZM23.9761 41.9597C23.5856 42.3503 23.5856 42.9834 23.9761 43.374C24.3666 43.7645 24.9998 43.7645 25.3903 43.374L23.9761 41.9597ZM32.1305 43.0521L28.6264 46.5562L30.0406 47.9704L33.5447 44.4663L32.1305 43.0521ZM27.5043 38.4316L23.9761 41.9597L25.3903 43.374L28.9185 39.8458L27.5043 38.4316Z" fill="#141414"/>
<path opacity="0.5" d="M36.4456 36.8969C36.8369 36.5072 36.8382 35.874 36.4485 35.4827C36.0588 35.0913 35.4257 35.09 35.0343 35.4797L36.4456 36.8969ZM33.4585 39.8713L36.4456 36.8969L35.0343 35.4797L32.0473 38.4541L33.4585 39.8713ZM44.9911 29.5308C44.2815 30.2375 43.1292 30.2375 42.4196 29.5308L41.0084 30.948C42.4983 32.4317 44.9123 32.4317 46.4023 30.948L44.9911 29.5308ZM42.4196 29.5308C41.7123 28.8265 41.7123 27.6864 42.4196 26.9821L41.0084 25.5649C39.5161 27.0509 39.5161 29.462 41.0084 30.948L42.4196 29.5308ZM42.4196 26.9821C43.1292 26.2755 44.2815 26.2755 44.9911 26.9821L46.4023 25.5649C44.9123 24.0812 42.4983 24.0812 41.0084 25.5649L42.4196 26.9821ZM44.9911 26.9821C45.6983 27.6864 45.6983 28.8265 44.9911 29.5308L46.4023 30.948C47.8946 29.462 47.8946 27.0509 46.4023 25.5649L44.9911 26.9821Z" fill="#141414"/>
</svg>
